<svg width="76" height="20" viewBox="0 0 76 20" fill="none" xmlns="http://www.w3.org/2000/svg">
<path d="M10 0L12.2451 6.90983H19.5106L13.6327 11.1803L15.8779 18.0902L10 13.8197L4.12215 18.0902L6.36729 11.1803L0.489435 6.90983H7.75486L10 0Z" fill="#CAA731"/>
<path d="M38 0L40.2451 6.90983H47.5106L41.6327 11.1803L43.8779 18.0902L38 13.8197L32.1221 18.0902L34.3673 11.1803L28.4894 6.90983H35.7549L38 0Z" fill="#CAA731"/>
<path d="M66 0L68.2451 6.90983H75.5106L69.6327 11.1803L71.8779 18.0902L66 13.8197L60.1221 18.0902L62.3673 11.1803L56.4894 6.90983H63.7549L66 0Z" fill="#CAA731"/>
</svg>
