<svg width="21" height="23" viewBox="0 0 21 23" fill="none" xmlns="http://www.w3.org/2000/svg">
<g clip-path="url(#clip0_532_2557)">
<path d="M16.1825 0.824219H5.14535C2.66265 0.824219 0.650024 2.96985 0.650024 5.61662V17.3832C0.650024 20.0299 2.66265 22.1756 5.14535 22.1756H16.1825C18.6652 22.1756 20.6778 20.0299 20.6778 17.3832V5.61662C20.6778 2.96985 18.6652 0.824219 16.1825 0.824219Z" fill="#FEFEFF"/>
<path d="M7.58722 4.52148H13.8307C13.9695 4.59544 14.1776 4.59544 14.3163 4.6694C14.9252 4.77459 15.4944 5.05872 15.9601 5.48986C16.4258 5.921 16.7695 6.48205 16.9525 7.10997C17.0549 7.47182 17.1246 7.84331 17.1606 8.21933V14.7275C17.0614 15.5524 16.7757 16.3392 16.3281 17.0202C15.9441 17.4945 15.4627 17.868 14.9213 18.1117C14.3799 18.3554 13.793 18.4628 13.2064 18.4254H8.00345C7.07494 18.4734 6.162 18.1578 5.43668 17.5379C4.99561 17.1316 4.64754 16.6232 4.41909 16.0515C4.19064 15.4798 4.08785 14.86 4.1186 14.2394V9.06244C4.10714 8.69111 4.13038 8.3195 4.18798 7.95308C4.25803 7.19487 4.55045 6.47948 5.0237 5.90858C5.49694 5.33767 6.12692 4.9403 6.82412 4.77294L7.58722 4.52148ZM5.43668 11.5474V14.4317C5.4071 14.799 5.45319 15.1688 5.57172 15.5151C5.69026 15.8614 5.87837 16.1759 6.12288 16.4366C6.36739 16.6972 6.6624 16.8978 6.98725 17.0241C7.31209 17.1505 7.65892 17.1996 8.00345 17.1681C9.80713 17.2421 11.6108 17.2421 13.4145 17.1681C15.0101 17.1681 15.9119 16.1327 15.9813 14.4317C16.0506 12.5088 16.0506 10.5859 15.9813 8.66307C15.9992 8.29867 15.9452 7.93432 15.8225 7.59364C15.6999 7.25296 15.5114 6.94358 15.2694 6.68556C15.0274 6.42753 14.7372 6.22663 14.4176 6.0959C14.0981 5.96516 13.7563 5.9075 13.4145 5.92666C11.6108 5.85271 9.80713 5.85271 8.00345 5.92666C7.65892 5.89513 7.31209 5.94427 6.98725 6.07064C6.6624 6.197 6.36739 6.39754 6.12288 6.65822C5.87837 6.91889 5.69026 7.23339 5.57172 7.57971C5.45319 7.92602 5.4071 8.29577 5.43668 8.66307V11.5474Z" fill="#2B2B2B"/>
<path d="M7.33752 11.577C7.33936 10.6165 7.69808 9.69588 8.33516 9.0167C8.97225 8.33751 9.83579 7.95508 10.7368 7.95312C11.6327 7.97205 12.4871 8.35992 13.1208 9.03547C13.7544 9.71103 14.1183 10.6218 14.136 11.577C14.1342 12.5375 13.7755 13.4581 13.1384 14.1373C12.5013 14.8165 11.6377 15.1989 10.7368 15.2009C9.84079 15.182 8.98645 14.7941 8.35278 14.1186C7.7191 13.443 7.35527 12.5322 7.33752 11.577ZM10.7368 9.28435C10.3154 9.27704 9.90161 9.40404 9.5484 9.64906C9.19518 9.89408 8.91864 10.246 8.75421 10.6596C8.58979 11.0733 8.54497 11.5298 8.6255 11.9708C8.70603 12.4118 8.90824 12.8171 9.20622 13.1347C9.5042 13.4524 9.88438 13.668 10.298 13.7538C10.7117 13.8397 11.1399 13.7919 11.5279 13.6166C11.9159 13.4413 12.246 13.1465 12.4758 12.77C12.7057 12.3934 12.8248 11.9523 12.8179 11.5031C12.8179 10.9146 12.5987 10.3503 12.2084 9.93419C11.8181 9.5181 11.2887 9.28435 10.7368 9.28435Z" fill="#2B2B2B"/>
<path d="M13.3728 7.80598C13.3689 7.68832 13.3878 7.57107 13.4283 7.46153C13.4687 7.35198 13.5299 7.25249 13.608 7.16924C13.6861 7.08599 13.7794 7.02077 13.8822 6.97763C13.9849 6.93449 14.0949 6.91437 14.2053 6.9185C14.4213 6.93407 14.6246 7.03257 14.7777 7.19576C14.9307 7.35894 15.0231 7.57573 15.0377 7.80598C15.0377 8.04135 14.95 8.26709 14.7939 8.43352C14.6378 8.59996 14.4261 8.69346 14.2053 8.69346C13.9845 8.69346 13.7728 8.59996 13.6166 8.43352C13.4605 8.26709 13.3728 8.04135 13.3728 7.80598Z" fill="#2B2B2B"/>
</g>
<defs>
<clipPath id="clip0_532_2557">
<rect width="20.0278" height="21.3514" fill="white" transform="translate(0.650024 0.824219)"/>
</clipPath>
</defs>
</svg>
