<svg width="51" height="51" viewBox="0 0 51 51" fill="none" xmlns="http://www.w3.org/2000/svg">
<path d="M25.909 5.36729C25.5886 3.75782 23.2872 3.75783 22.9668 5.36729L20.5194 17.6592C20.4604 17.9557 20.1537 18.1324 19.8675 18.0347L8.14913 14.0337C6.60419 13.5062 5.44759 15.4772 6.66157 16.5687L15.9743 24.9417C16.1952 25.1404 16.1952 25.4867 15.9743 25.6854L6.66157 34.0584C5.44759 35.1499 6.60419 37.1208 8.14913 36.5934L19.8675 32.5924C20.1537 32.4946 20.4604 32.6713 20.5194 32.9679L22.9668 45.2598C23.2872 46.8693 25.5886 46.8693 25.909 45.2598L28.3564 32.9679C28.4154 32.6713 28.7222 32.4946 29.0083 32.5924L40.7267 36.5934C42.2717 37.1208 43.4283 35.1499 42.2143 34.0584L32.9015 25.6854C32.6806 25.4867 32.6806 25.1404 32.9015 24.9417L42.2143 16.5687C43.4283 15.4772 42.2716 13.5062 40.7267 14.0337L29.0083 18.0347C28.7222 18.1324 28.4154 17.9557 28.3564 17.6592L25.909 5.36729Z" fill="#CAA731" stroke="#FEFEFF"/>
<path d="M24.8451 5.46492C25.0587 4.39195 26.593 4.39195 26.8066 5.46492L29.254 17.7568C29.372 18.3499 29.9855 18.7033 30.5578 18.5079L42.2762 14.5069C43.3062 14.1552 44.0772 15.4692 43.2679 16.1969L33.9552 24.5699C33.5133 24.9672 33.5133 25.6599 33.9552 26.0572L43.2679 34.4302C44.0772 35.1578 43.3062 36.4718 42.2762 36.1202L30.5578 32.1192C29.9855 31.9238 29.372 32.2771 29.254 32.8703L26.8066 45.1622C26.593 46.2351 25.0587 46.2351 24.8451 45.1622L22.3978 32.8703C22.2797 32.2771 21.6662 31.9238 21.0939 32.1192L9.37551 36.1202C8.34555 36.4718 7.57448 35.1578 8.38381 34.4302L17.6965 26.0572C18.1384 25.6599 18.1384 24.9672 17.6965 24.5699L8.38381 16.1969C7.57448 15.4692 8.34555 14.1552 9.37551 14.5069L21.0939 18.5079C21.6662 18.7033 22.2797 18.3499 22.3978 17.7568L24.8451 5.46492Z" fill="url(#paint0_linear_537_2626)"/>
<defs>
<linearGradient id="paint0_linear_537_2626" x1="25.8259" y1="0.539062" x2="25.8259" y2="50.088" gradientUnits="userSpaceOnUse">
<stop stop-color="#272007"/>
<stop offset="1" stop-color="#F3BB00"/>
</linearGradient>
</defs>
</svg>
