<svg width="70" height="70" viewBox="0 0 70 70" fill="none" xmlns="http://www.w3.org/2000/svg">
<path d="M43.2293 49.6656C43.0207 49.6673 42.8146 49.6203 42.6273 49.5284L35.0001 45.9192L27.3729 49.5284C27.1457 49.6371 26.8934 49.6825 26.6426 49.6599C26.3918 49.6372 26.1517 49.5473 25.9477 49.3996C25.7451 49.2511 25.5863 49.0508 25.4877 48.8198C25.3892 48.5887 25.3547 48.3354 25.3877 48.0864L26.4825 39.7116L20.6669 33.5768C20.4941 33.3939 20.3737 33.1678 20.3185 32.9223C20.2633 32.6768 20.2753 32.4209 20.3533 32.1816C20.4312 31.9423 20.5722 31.7285 20.7614 31.5626C20.9507 31.3967 21.1811 31.2848 21.4285 31.2388L29.7333 29.6904L33.7709 22.2704C33.9033 22.0647 34.0852 21.8954 34.2999 21.7782C34.5147 21.661 34.7554 21.5996 35.0001 21.5996C35.2448 21.5996 35.4855 21.661 35.7003 21.7782C35.915 21.8954 36.0969 22.0647 36.2293 22.2704L40.2669 29.6904L48.5717 31.2388C48.8191 31.2848 49.0496 31.3967 49.2388 31.5626C49.428 31.7285 49.569 31.9423 49.6469 32.1816C49.7249 32.4209 49.7369 32.6768 49.6817 32.9223C49.6265 33.1678 49.5062 33.3939 49.3333 33.5768L43.5233 39.7116L44.6181 48.0864C44.6437 48.2847 44.6265 48.4862 44.5677 48.6773C44.5089 48.8685 44.4099 49.0448 44.2772 49.1944C44.1446 49.344 43.9814 49.4635 43.7987 49.5448C43.616 49.6261 43.4181 49.6673 43.2181 49.6656H43.2293ZM35.0001 42.9456C35.2086 42.9453 35.4144 42.9922 35.6021 43.0828L41.5073 45.8828L40.6673 39.3952C40.6403 39.1893 40.6595 38.98 40.7234 38.7824C40.7873 38.5848 40.8944 38.4039 41.0369 38.2528L45.5365 33.4928L39.0965 32.2916C38.8924 32.2534 38.6993 32.1703 38.5312 32.0483C38.3632 31.9262 38.2244 31.7683 38.1249 31.586L35.0001 25.8684L31.8725 31.614C31.773 31.7963 31.6342 31.9542 31.4662 32.0763C31.2981 32.1983 31.1051 32.2814 30.9009 32.3196L24.4609 33.5208L28.9605 38.2808C29.103 38.4319 29.2101 38.6128 29.274 38.8104C29.3379 39.008 29.3571 39.2173 29.3301 39.4232L28.4901 45.9108L34.3953 43.1108C34.5823 43.013 34.7892 42.9594 35.0001 42.954V42.9456Z" fill="#CAA731"/>
<path d="M11.0599 43.4004C10.8597 43.4021 10.6614 43.3608 10.4785 43.2794C10.2956 43.1979 10.1323 43.0782 9.99958 42.9282C9.86689 42.7783 9.7679 42.6016 9.7093 42.4102C9.6507 42.2187 9.63385 42.0169 9.65989 41.8184L10.5223 35.2552L5.98349 30.4504C5.81066 30.2677 5.69025 30.0418 5.63491 29.7964C5.57956 29.5511 5.59132 29.2954 5.66896 29.0562C5.7466 28.817 5.88725 28.6031 6.07611 28.437C6.26498 28.2709 6.4951 28.1588 6.74229 28.1124L13.2551 26.8804L16.4079 21.0648C16.5284 20.8433 16.7065 20.6585 16.9233 20.5299C17.1402 20.4013 17.3878 20.3336 17.6399 20.334C17.8913 20.3338 18.138 20.4013 18.3543 20.5294C18.5706 20.6575 18.7484 20.8415 18.8691 21.062L21.8091 26.466C21.9869 26.792 22.028 27.1753 21.9232 27.5316C21.8185 27.8879 21.5765 28.1879 21.2505 28.3658C20.9245 28.5436 20.5412 28.5847 20.1849 28.4799C19.8286 28.3752 19.5285 28.1332 19.3507 27.8072L17.6399 24.6684L15.3999 28.8124C15.3004 28.9955 15.1614 29.1542 14.9928 29.2768C14.8242 29.3993 14.6304 29.4827 14.4255 29.5208L9.78309 30.3916L13.0283 33.8188C13.1717 33.9699 13.2795 34.1512 13.3439 34.3493C13.4083 34.5474 13.4277 34.7574 13.4007 34.964L12.7847 39.6316L17.0351 37.6072C17.2231 37.5176 17.4288 37.4711 17.6371 37.4711C17.8454 37.4711 18.051 37.5176 18.2391 37.6072L22.3831 39.5672C22.6868 39.7437 22.913 40.028 23.0169 40.3636C23.1208 40.6992 23.0947 41.0616 22.9438 41.3788C22.793 41.696 22.5283 41.945 22.2025 42.0762C21.8766 42.2074 21.5133 42.2113 21.1847 42.0872L17.6427 40.4072L11.6647 43.2688C11.4754 43.3572 11.2688 43.4022 11.0599 43.4004ZM58.9399 43.4004C58.7306 43.4004 58.5239 43.3536 58.3351 43.2632L52.3599 40.4212L48.8179 42.1012C48.6505 42.1985 48.4648 42.26 48.2724 42.2819C48.0801 42.3037 47.8853 42.2855 47.7003 42.2282C47.5154 42.171 47.3444 42.076 47.198 41.9493C47.0516 41.8226 46.9331 41.6669 46.85 41.4921C46.7668 41.3172 46.7209 41.1271 46.715 40.9336C46.709 40.7401 46.7433 40.5474 46.8156 40.3679C46.888 40.1883 46.9967 40.0257 47.1351 39.8903C47.2734 39.7549 47.4384 39.6496 47.6195 39.5812L51.7635 37.6212C51.9515 37.5316 52.1572 37.4851 52.3655 37.4851C52.5738 37.4851 52.7794 37.5316 52.9675 37.6212L57.2179 39.6456L56.6019 34.978C56.5748 34.7714 56.5942 34.5614 56.6587 34.3633C56.7231 34.1652 56.8309 33.9839 56.9743 33.8328L60.2195 30.4056L55.5771 29.5348C55.3722 29.4967 55.1784 29.4133 55.0098 29.2908C54.8412 29.1682 54.7021 29.0095 54.6027 28.8264L52.3627 24.6824L50.6547 27.8212C50.4768 28.1472 50.1768 28.3892 49.8205 28.4939C49.4642 28.5987 49.0809 28.5576 48.7549 28.3798C48.4289 28.2019 48.1869 27.9019 48.0821 27.5456C47.9774 27.1893 48.0184 26.806 48.1963 26.48L51.1363 21.076C51.2569 20.8555 51.4348 20.6715 51.651 20.5434C51.8673 20.4153 52.1141 20.3478 52.3655 20.348C52.6171 20.3481 52.8641 20.416 53.0804 20.5446C53.2967 20.6732 53.4744 20.8577 53.5947 21.0788L56.7447 26.8804L63.2575 28.1012C63.5047 28.1476 63.7348 28.2597 63.9237 28.4258C64.1125 28.5919 64.2532 28.8058 64.3308 29.045C64.4084 29.2842 64.4202 29.5399 64.3649 29.7852C64.3095 30.0306 64.1891 30.2565 64.0163 30.4392L59.4635 35.2496L60.3259 41.8128C60.3519 42.0113 60.3351 42.2131 60.2765 42.4046C60.2179 42.596 60.1189 42.7727 59.9862 42.9226C59.8535 43.0726 59.6902 43.1923 59.5073 43.2738C59.3244 43.3552 59.1261 43.3965 58.9259 43.3948L58.9399 43.4004Z" fill="#CAA731"/>
</svg>
