<svg width="52" height="52" viewBox="0 0 52 52" fill="none" xmlns="http://www.w3.org/2000/svg">
<path d="M7.55298 19.4233C7.91698 19.4666 8.28965 19.4948 8.66665 19.4991C10.3783 19.5186 12.0011 19.1134 13 18.4158C13.9988 17.7224 15.6216 17.3173 17.3333 17.3324C19.045 17.3173 20.6678 17.7224 21.6666 18.4158C22.6655 19.1134 24.2883 19.5186 26 19.4991C27.7116 19.5186 29.3345 19.1134 30.3333 18.4158C31.3321 17.7224 32.955 17.3173 34.6666 17.3324C36.3783 17.3173 38.0011 17.7224 39 18.4158C39.9988 19.1134 41.6216 19.5186 43.3333 19.4991C43.7016 19.4948 44.0678 19.4688 44.4231 19.4254" stroke="#CAA731" stroke-width="2" stroke-linecap="round" stroke-linejoin="round"/>
<path d="M6.5 13L10.2288 35.3795C10.3976 36.3913 10.9198 37.3105 11.7025 37.9734C12.4853 38.6364 13.4779 39.0001 14.5037 39H37.4963C38.5221 39.0001 39.5147 38.6364 40.2975 37.9734C41.0802 37.3105 41.6024 36.3913 41.7712 35.3795L45.5 13" stroke="#CAA731" stroke-width="2" stroke-linecap="round" stroke-linejoin="round"/>
</svg>
