<svg width="36" height="36" viewBox="0 0 36 36" fill="none" xmlns="http://www.w3.org/2000/svg">
<g clip-path="url(#clip0_532_2664)">
<path d="M17.8199 24.0607L26.5899 33.6707C26.6902 33.7805 26.8137 33.8666 26.9515 33.9227C27.0893 33.9787 27.2378 34.0033 27.3863 33.9947C27.5348 33.9861 27.6795 33.9444 27.8099 33.8728C27.9403 33.8012 28.053 33.7014 28.1399 33.5807L29.7399 31.3407C30.1853 30.7102 30.4144 29.9523 30.3928 29.1807C30.3711 28.4091 30.1 27.6652 29.6199 27.0607L20.6999 15.8807L23.2199 12.6207C24.5052 13.0561 25.9067 12.9964 27.1503 12.4532C28.3939 11.91 29.3901 10.9223 29.944 9.68347C30.4979 8.44461 30.5697 7.04366 30.1454 5.75466C29.721 4.46566 28.8311 3.38134 27.6495 2.71381C26.468 2.04628 25.0799 1.84357 23.7569 2.14532C22.4338 2.44707 21.2709 3.23158 20.4956 4.34538C19.7203 5.45919 19.3885 6.82216 19.565 8.16769C19.7415 9.51322 20.4136 10.7445 21.4499 11.6207L19.4499 14.2407L15.9999 10.0007C16.6465 8.79923 16.8216 7.39979 16.491 6.07607C16.1604 4.75234 15.3479 3.59954 14.2124 2.84313C13.0769 2.08671 11.7001 1.78108 10.3512 1.98601C9.00227 2.19094 7.77832 2.8917 6.91871 3.95122C6.0591 5.01075 5.62564 6.35283 5.70311 7.71501C5.78058 9.07719 6.36341 10.3615 7.33762 11.3167C8.31182 12.2719 9.60732 12.8294 10.9708 12.8801C12.3342 12.9307 13.6675 12.471 14.7099 11.5907L28.0599 28.3007C28.2701 28.5667 28.3885 28.8935 28.3976 29.2324C28.4066 29.5712 28.3057 29.9039 28.1099 30.1807L27.2299 31.4107L17.8099 21.1007L8.40991 31.4107L7.52991 30.1807C7.33417 29.9039 7.23326 29.5712 7.24227 29.2324C7.25128 28.8935 7.36973 28.5667 7.57991 28.3007L15.4299 18.4907L14.0699 17.0007L6.06991 27.0607C5.58751 27.6661 5.31495 28.4119 5.29331 29.1856C5.27167 29.9594 5.50211 30.7193 5.94991 31.3507L7.54991 33.5907C7.63682 33.7114 7.74957 33.8112 7.87993 33.8828C8.01029 33.9544 8.15499 33.9961 8.30349 34.0047C8.45198 34.0133 8.60052 33.9887 8.7383 33.9327C8.87608 33.8766 8.99961 33.7905 9.09991 33.6807L17.8199 24.0607ZM21.4599 7.45069C21.4579 6.76594 21.6592 6.096 22.0382 5.5257C22.4171 4.95539 22.9568 4.51035 23.5889 4.24694C24.2209 3.98353 24.9169 3.91358 25.5888 4.04595C26.2606 4.17833 26.8781 4.50707 27.3629 4.99056C27.8478 5.47405 28.1784 6.09054 28.3127 6.76199C28.447 7.43343 28.3791 8.12964 28.1175 8.76245C27.8559 9.39527 27.4124 9.93624 26.8432 10.3169C26.274 10.6975 25.6047 10.9007 24.9199 10.9007C24.004 10.9007 23.1254 10.5375 22.4769 9.89081C21.8283 9.2441 21.4626 8.3666 21.4599 7.45069ZM7.73991 7.45069C7.73793 6.76594 7.93917 6.096 8.31816 5.5257C8.69714 4.95539 9.23683 4.51035 9.86888 4.24694C10.5009 3.98353 11.1969 3.91358 11.8688 4.04595C12.5406 4.17833 13.1581 4.50707 13.6429 4.99056C14.1278 5.47405 14.4584 6.09054 14.5927 6.76199C14.727 7.43343 14.6591 8.12964 14.3975 8.76245C14.1359 9.39527 13.6924 9.93624 13.1232 10.3169C12.554 10.6975 11.8847 10.9007 11.1999 10.9007C10.284 10.9007 9.40544 10.5375 8.75685 9.89081C8.10826 9.2441 7.74256 8.3666 7.73991 7.45069Z" fill="#CAA731"/>
</g>
<defs>
<clipPath id="clip0_532_2664">
<rect width="36" height="36" fill="white" transform="translate(36) rotate(90)"/>
</clipPath>
</defs>
</svg>
