<svg width="38" height="38" viewBox="0 0 38 38" fill="none" xmlns="http://www.w3.org/2000/svg">
<path d="M32.9127 14.2865C32.7148 14.3292 30.058 14.9483 26.6538 17.0953C26.1424 14.6142 24.6287 9.96875 20.1495 5.24408L19 4.03125L17.8505 5.24567C13.3554 9.98775 11.848 14.6459 11.3414 17.1428C7.92454 14.9594 5.28829 14.3324 5.09513 14.2881L3.16663 13.8574V15.8334C3.16663 27.3759 9.38121 34.8334 19 34.8334C28.4699 34.8334 34.8333 27.1986 34.8333 15.8334V13.8669L32.9127 14.2865ZM14.2484 19.0603C14.2515 19.008 14.489 14.1519 19 8.71792C23.4555 14.1012 23.7484 19.0001 23.75 19.0001V19.198C21.9743 20.6735 20.3751 22.3493 18.9841 24.1918C17.5892 22.3818 16.0012 20.7291 14.2484 19.2629V19.0603ZM19 31.6667C10.583 31.6667 7.04738 25.0231 6.43304 18.1071C9.05346 19.2439 13.7417 21.9482 17.6858 27.8018L19.0174 29.7794L20.3236 27.7844C24.1648 21.9134 28.9132 19.217 31.559 18.0912C30.9288 24.7856 27.398 31.6667 19 31.6667Z" fill="#CAA731"/>
</svg>
