<svg width="40" height="40" viewBox="0 0 40 40" fill="none" xmlns="http://www.w3.org/2000/svg">
<path d="M20 4.29688L19.0238 5.46813C19.0238 5.46813 16.5237 8.48063 13.985 12.2256C12.715 14.1006 11.4062 16.1469 10.43 18.1244C9.45375 20.1019 8.75 21.9969 8.75 23.7494C8.75 29.9306 13.8187 34.9994 20 34.9994C26.1812 34.9994 31.25 29.9306 31.25 23.7494C31.25 21.9969 30.5462 20.1019 29.57 18.1244C28.5938 16.1469 27.285 14.1006 26.0163 12.2256C23.4762 8.48063 20.9762 5.46813 20.9762 5.46813L20 4.29688ZM20 8.31938C20.6987 9.18438 22.0062 10.7169 23.985 13.6319C25.215 15.4444 26.4062 17.4406 27.305 19.2569C28.2025 21.0744 28.75 22.7531 28.75 23.7494C28.75 28.5681 24.8188 32.4994 20 32.4994C15.1813 32.4994 11.25 28.5681 11.25 23.7494C11.25 22.7531 11.7975 21.0744 12.695 19.2569C13.5938 17.4406 14.785 15.4444 16.015 13.6319C17.9938 10.7169 19.3025 9.18438 20 8.31938ZM13.75 23.7494C13.75 27.1819 16.5675 29.9994 20 29.9994V27.4994C19.0054 27.4994 18.0516 27.1043 17.3483 26.401C16.6451 25.6978 16.25 24.7439 16.25 23.7494H13.75Z" fill="#CAA731"/>
</svg>
