<svg width="21" height="23" viewBox="0 0 21 23" fill="none" xmlns="http://www.w3.org/2000/svg">
<g clip-path="url(#clip0_532_2567)">
<path d="M0.800049 0.824219H20.8278V22.1756H0.800049V0.824219Z" fill="#FEFEFF"/>
<path d="M5.70679 14.1234L5.74622 14.2462C5.74188 14.2327 5.7265 14.19 5.70679 14.1234ZM7.33144 11.3237C7.35295 11.0403 7.43412 10.7657 7.5689 10.5203C7.70369 10.275 7.88863 10.0652 8.10996 9.90652C8.77079 9.39139 9.59445 9.68227 9.59445 9.68227V7.95004C9.79461 7.94463 9.99482 7.95799 10.1928 7.98997V10.2178C10.1928 10.2178 9.36912 9.92691 8.70829 10.442C8.48696 10.6007 8.30202 10.8105 8.16723 11.0559C8.03245 11.3012 7.95128 11.5758 7.92977 11.8592C7.91409 12.3001 8.03263 12.7345 8.26768 13.0976C8.19749 13.0576 8.12751 13.0122 8.05496 12.9614C7.81604 12.7742 7.62474 12.5263 7.4984 12.2404C7.37206 11.9544 7.31467 11.6393 7.33144 11.3237ZM13.6006 4.74744C13.2446 4.32344 13.0063 3.80228 12.9122 3.24219H13.4839C13.4592 3.99708 13.7168 4.73152 14.1999 5.28401L14.2125 5.29725C13.9879 5.14215 13.7826 4.95742 13.6014 4.74744H13.6006ZM16.3519 6.31679V8.50005C15.9246 8.47923 15.4998 8.41761 15.0827 8.31594C14.6488 8.19759 14.2326 8.01522 13.846 7.77412C13.846 7.77412 13.5109 7.53936 13.4855 7.52318V12.0337C13.4714 12.5118 13.3869 12.9847 13.2351 13.4349C12.8754 14.4269 12.1679 15.2308 11.2623 15.6768C10.7692 15.9189 10.2329 16.0445 9.69007 16.045C8.93774 16.0427 8.20216 15.8081 7.57216 15.3697C7.3547 15.2098 7.15186 15.0284 6.96633 14.8279L6.97126 14.8332C7.60064 15.273 8.33664 15.5076 9.08917 15.5084C9.63202 15.508 10.1683 15.3823 10.6614 15.1402C11.567 14.6943 12.2745 13.8903 12.6342 12.8983C12.786 12.4481 12.8705 11.9753 12.8846 11.4971V6.98934C12.9122 7.00531 13.2451 7.24029 13.2451 7.24029C13.6317 7.48139 14.048 7.66375 14.4818 7.78211C14.8989 7.88378 15.3237 7.9454 15.751 7.96622V6.25542C15.947 6.30908 16.1496 6.32979 16.3515 6.31679H16.3519Z" fill="#2B2B2B"/>
<path d="M15.7511 6.25269V7.96349C15.3238 7.94267 14.899 7.88105 14.4819 7.77938C14.0481 7.66102 13.6318 7.47865 13.2453 7.23755C13.2453 7.23755 12.9101 7.00279 12.8847 6.98661V11.4971C12.8706 11.9753 12.7861 12.4481 12.6343 12.8983C12.2746 13.8903 11.5671 14.6943 10.6615 15.1402C10.1684 15.3823 9.63212 15.508 9.08928 15.5084C8.33696 15.5061 7.60137 15.2715 6.97137 14.8332L6.96644 14.8279C6.86121 14.7136 6.76178 14.5933 6.66856 14.4677C6.4317 14.1338 6.24115 13.7653 6.10276 13.3735V13.3708C5.95205 12.9019 5.87674 12.4093 5.87998 11.9137C5.89079 11.2676 6.04798 10.634 6.33814 10.0667C6.56952 9.62885 6.8702 9.23699 7.22687 8.90842C7.54203 8.62529 7.89903 8.3998 8.28336 8.24112C8.69896 8.05455 9.14426 7.95466 9.59515 7.94688V9.67891C9.59515 9.67891 8.77148 9.38803 8.11066 9.90316C7.87457 10.0688 7.6799 10.2933 7.54352 10.5572C7.40714 10.8211 7.33315 11.1164 7.32797 11.4177C7.32278 11.7189 7.38656 12.017 7.51377 12.286C7.64098 12.5551 7.82779 12.787 8.05802 12.9618C8.13057 13.0124 8.20075 13.0578 8.27074 13.098C8.512 13.4404 8.85567 13.6846 9.2449 13.7904C9.63412 13.8962 10.0456 13.8572 10.4111 13.6797C10.6232 13.5809 10.8134 13.4355 10.9691 13.2529C11.1249 13.0703 11.2427 12.8547 11.3148 12.6203C11.393 12.3364 11.4244 12.0402 11.4075 11.7449V3.24219H12.9095C13.0025 3.80267 13.241 4.32415 13.5979 4.74744C13.7802 4.95617 13.9854 5.14077 14.2091 5.29725C14.4507 5.57349 14.7342 5.80446 15.0477 5.98052C15.2714 6.10065 15.5074 6.19235 15.7511 6.25374V6.25269Z" fill="#2B2B2B"/>
<path d="M5.50415 12.8438L5.54156 12.9585C5.53663 12.9453 5.52167 12.9051 5.50415 12.8438Z" fill="#FEFEFF"/>
<path d="M8.28304 8.24356C7.89843 8.40162 7.54134 8.62717 7.22655 8.91086C6.86911 9.23969 6.56835 9.6326 6.33783 10.0718C6.04722 10.6389 5.89 11.2727 5.87967 11.9188C5.87742 12.4144 5.95271 12.907 6.10244 13.3762V13.3789C6.24138 13.7704 6.43189 14.1388 6.66824 14.4731C6.76146 14.5987 6.86089 14.7189 6.96612 14.8333C6.62699 14.5828 6.32418 14.2807 6.06735 13.9365C5.83083 13.6047 5.64108 13.2379 5.50411 12.8476V12.8423C5.35198 12.3729 5.27663 11.8791 5.28134 11.3825C5.29214 10.7364 5.44933 10.1028 5.7395 9.53549C5.97002 9.09624 6.27078 8.70333 6.62822 8.3745C7.03358 8.00532 7.50796 7.7323 8.01988 7.57355C8.5318 7.4148 9.06954 7.37396 9.59739 7.45374V7.95016C9.14565 7.95764 8.69945 8.05753 8.28304 8.2444V8.24356Z" fill="#FEFEFF"/>
<path d="M12.912 3.24144H11.4099V11.7446C11.4256 12.0398 11.3942 12.3358 11.3173 12.6199C11.2439 12.8537 11.1257 13.0687 10.9701 13.2511C10.8145 13.4335 10.625 13.5794 10.4136 13.6794C10.1343 13.8242 9.82295 13.8841 9.5138 13.8525C9.20465 13.821 8.90963 13.6992 8.66117 13.5006C8.5119 13.3914 8.38077 13.2564 8.27319 13.1012C8.50779 13.2396 8.77021 13.3156 9.03822 13.3229C9.30623 13.3302 9.57195 13.2686 9.81288 13.1433C10.0248 13.0441 10.2147 12.8985 10.3704 12.716C10.5261 12.5334 10.644 12.3181 10.7166 12.0838C10.7948 11.7999 10.8261 11.5037 10.8092 11.2084V2.70508H12.8846C12.8695 2.88434 12.8787 3.06498 12.912 3.24144ZM15.7508 5.77947V6.25194C15.1573 6.10896 14.6191 5.77551 14.2088 5.2965C14.2865 5.34988 14.3639 5.39801 14.4465 5.44362C14.8479 5.67061 15.2965 5.78619 15.7508 5.77968V5.77947Z" fill="#FEFEFF"/>
<path d="M12.9618 19.3666C12.9614 19.4273 12.9698 19.4876 12.9869 19.5455C12.9869 19.5507 12.9894 19.5534 12.9894 19.5587C13.0296 19.6964 13.1101 19.8168 13.2191 19.9023C13.3281 19.9878 13.4599 20.0338 13.5952 20.0337V20.717C13.2903 20.7503 12.9834 20.6793 12.7189 20.5141C12.5298 20.3891 12.3747 20.2135 12.2689 20.0048C12.1632 19.7961 12.1104 19.5615 12.116 19.3244C12.1216 19.0872 12.1852 18.8558 12.3006 18.6529C12.416 18.4501 12.5792 18.283 12.7739 18.1682C13.0288 18.0325 13.3138 17.9744 13.5976 18.0001V18.6833C13.5144 18.6832 13.432 18.7006 13.3551 18.7345C13.2781 18.7683 13.2083 18.8181 13.1494 18.8808C13.0906 18.9435 13.0439 19.018 13.0121 19.1C12.9803 19.182 12.9641 19.2699 12.9642 19.3586L12.9618 19.3666Z" fill="#FEFEFF"/>
<path d="M14.2336 19.367C14.2341 19.4277 14.2257 19.488 14.2086 19.5459C14.2086 19.5511 14.206 19.5539 14.206 19.5591C14.1658 19.6969 14.0853 19.8172 13.9763 19.9027C13.8673 19.9882 13.7355 20.0342 13.6002 20.0341V20.7174C13.9043 20.7507 14.2104 20.6797 14.474 20.5146C14.6604 20.3946 14.8144 20.2249 14.9206 20.0222C15.0268 19.8195 15.0817 19.5908 15.0798 19.3586C15.0806 19.1154 15.0199 18.8765 14.904 18.6669C14.7881 18.4574 14.6214 18.2851 14.4213 18.1682C14.1665 18.0325 13.8815 17.9744 13.5977 18.0001V18.6833C13.6809 18.6832 13.7633 18.7006 13.8402 18.7345C13.9171 18.7683 13.987 18.8181 14.0458 18.8808C14.1047 18.9435 14.1513 19.018 14.1831 19.1C14.2149 19.182 14.2312 19.2699 14.2311 19.3586V19.3666L14.2336 19.367Z" fill="#2B2B2B"/>
<path d="M3.79175 17.3828H6.13775L5.92089 18.0713H5.30758V20.7056H4.55272V18.0713H3.79175V17.3828ZM10.0104 17.3828V18.0713H10.7714V20.7056H11.5275V18.0713H12.1408L12.3576 17.3828H10.0104ZM6.64835 18.1649C6.72064 18.1649 6.79131 18.142 6.85142 18.0992C6.91152 18.0564 6.95837 17.9955 6.98603 17.9243C7.0137 17.8531 7.02094 17.7748 7.00683 17.6992C6.99273 17.6236 6.95792 17.5542 6.9068 17.4997C6.85569 17.4452 6.79056 17.4081 6.71966 17.393C6.64876 17.378 6.57527 17.3857 6.50848 17.4152C6.44169 17.4447 6.38461 17.4946 6.34445 17.5587C6.30429 17.6228 6.28285 17.6981 6.28285 17.7752C6.28269 17.8264 6.29203 17.8771 6.31034 17.9245C6.32864 17.9718 6.35553 18.0148 6.38949 18.051C6.42344 18.0872 6.46377 18.1159 6.50816 18.1355C6.55255 18.155 6.60013 18.165 6.64816 18.1649H6.64835ZM6.28265 20.7035H7.02371V18.4398H6.28265V20.7035ZM9.68732 18.1468H8.82107L8.07508 18.9421V17.3828H7.33914L7.33658 20.7002H8.0802V19.8355L8.31047 19.6106L9.03142 20.6995H9.82433L8.77947 19.109L9.68732 18.1468ZM16.7922 19.1136L17.699 18.1468H16.8328L16.0868 18.9421V17.3828H15.3503L15.3453 20.7035H16.089V19.8389L16.3218 19.6146L17.0427 20.7035H17.8364L16.7922 19.1136ZM14.887 19.3591C14.8904 19.6322 14.8176 19.9003 14.6778 20.1292C14.538 20.3582 14.3375 20.5376 14.1017 20.6447C13.866 20.7519 13.6057 20.7818 13.354 20.7308C13.1022 20.6798 12.8704 20.5501 12.688 20.3583C12.5055 20.1664 12.3808 19.9211 12.3295 19.6534C12.2782 19.3857 12.3027 19.1079 12.4 18.8551C12.4972 18.6024 12.6628 18.3862 12.8756 18.234C13.0884 18.0818 13.3388 18.0005 13.5951 18.0005C13.9353 17.998 14.2626 18.1396 14.5049 18.3943C14.7471 18.6489 14.8847 18.9957 14.8872 19.3584L14.887 19.3591ZM14.2285 19.3591C14.2285 19.2255 14.1914 19.0949 14.1218 18.9839C14.0522 18.8728 13.9532 18.7863 13.8375 18.7352C13.7217 18.6841 13.5944 18.6707 13.4715 18.6968C13.3486 18.7228 13.2358 18.7871 13.1472 18.8816C13.0586 18.976 12.9983 19.0963 12.9738 19.2273C12.9494 19.3583 12.9619 19.4941 13.0099 19.6175C13.0578 19.7409 13.139 19.8463 13.2432 19.9205C13.3473 19.9947 13.4698 20.0343 13.5951 20.0343C13.6784 20.0345 13.7609 20.0171 13.8378 19.9832C13.9148 19.9493 13.9847 19.8995 14.0436 19.8367C14.1025 19.7739 14.1491 19.6993 14.1809 19.6173C14.2127 19.5352 14.2289 19.4472 14.2287 19.3584L14.2285 19.3591Z" fill="#2B2B2B"/>
</g>
<defs>
<clipPath id="clip0_532_2567">
<rect x="0.800049" y="0.824219" width="20.0278" height="21.3514" rx="5" fill="white"/>
</clipPath>
</defs>
</svg>
