<svg width="21" height="23" viewBox="0 0 21 23" fill="none" xmlns="http://www.w3.org/2000/svg">
<path d="M10.8889 22.1756C16.4194 22.1756 20.9028 17.3959 20.9028 11.4999C20.9028 5.60388 16.4194 0.824219 10.8889 0.824219C5.35837 0.824219 0.875 5.60388 0.875 11.4999C0.875 17.3959 5.35837 22.1756 10.8889 22.1756Z" fill="#FEFEFF"/>
<path d="M17.4506 7.15009C16.9611 7.384 16.4411 7.53755 15.9085 7.60552C16.4705 7.24217 16.8899 6.6738 17.0887 6.00587C16.5626 6.34275 15.9859 6.58018 15.3839 6.70769C15.1341 6.4197 14.8311 6.18993 14.4939 6.03285C14.1568 5.87576 13.7928 5.79475 13.4248 5.79492C13.0705 5.79691 12.72 5.87328 12.3934 6.01967C12.0668 6.16607 11.7704 6.37962 11.5212 6.64814C11.272 6.91665 11.0748 7.23487 10.941 7.58462C10.8071 7.93437 10.7392 8.3088 10.7411 8.68654C10.7408 8.90831 10.764 9.12941 10.8102 9.34565C9.74037 9.28649 8.6944 8.98671 7.74096 8.46602C6.78753 7.94532 5.9482 7.21548 5.27812 6.32444C4.93499 6.96111 4.82991 7.71239 4.98389 8.42809C5.13788 9.14379 5.53957 9.77115 6.10867 10.1848C5.68198 10.1704 5.26486 10.0464 4.89279 9.82328V9.85979C4.8905 10.5244 5.10348 11.1695 5.49576 11.686C5.88803 12.2026 6.43554 12.5589 7.04577 12.6948C6.81543 12.7625 6.57753 12.7967 6.33859 12.7962C6.16903 12.7963 5.99985 12.7793 5.83329 12.7454C6.00206 13.3173 6.33462 13.8184 6.78425 14.1783C7.23389 14.5383 7.778 14.7391 8.34017 14.7525C7.785 15.2223 7.14792 15.57 6.46581 15.7754C5.78371 15.9809 5.07015 16.04 4.36646 15.9494C5.59076 16.7984 7.02005 17.2499 8.48056 17.2491C13.417 17.2491 16.117 12.843 16.117 9.02197C16.117 8.89656 16.1142 8.77187 16.1087 8.64789C16.6359 8.23713 17.0903 7.72959 17.4506 7.14902V7.15009Z" fill="#2B2B2B"/>
</svg>
