<svg width="48" height="48" viewBox="0 0 48 48" fill="none" xmlns="http://www.w3.org/2000/svg">
<circle opacity="0.1" cx="24" cy="24" r="24" fill="#FEFEFF"/>
<path d="M16.7455 32.4542C16.426 32.4542 16.1084 32.367 15.8273 32.1942C15.5746 32.0373 15.3659 31.8186 15.2212 31.5587C15.0764 31.2988 15.0003 31.0063 15 30.7088V16.7451C15 16.1395 15.3142 15.5774 15.8273 15.2598C16.0807 15.104 16.3695 15.0152 16.6666 15.0018C16.9637 14.9884 17.2593 15.0507 17.5257 15.183L31.4893 22.1648C31.7792 22.31 32.023 22.533 32.1934 22.8089C32.3638 23.0848 32.454 23.4027 32.454 23.727C32.454 24.0512 32.3638 24.3691 32.1934 24.645C32.023 24.9209 31.7792 25.1439 31.4893 25.2891L17.5257 32.271C17.2813 32.3931 17.0108 32.4542 16.7455 32.4542Z" fill="#CAA731"/>
</svg>
