<svg width="36" height="36" viewBox="0 0 36 36" fill="none" xmlns="http://www.w3.org/2000/svg">
<mask id="path-1-outside-1_532_2619" maskUnits="userSpaceOnUse" x="0.800049" y="0.800781" width="34" height="34" fill="black">
<rect fill="white" x="0.800049" y="0.800781" width="34" height="34"/>
<path d="M31.32 22.6808C31.32 20.7008 29.7001 19.0808 27.7201 19.0808C25.74 19.0808 24.1201 20.7008 24.1201 22.6808C24.1201 24.6608 25.74 26.2808 27.7201 26.2808C29.7001 26.2808 31.32 24.6608 31.32 22.6808ZM27.7201 24.8408C26.532 24.8408 25.56 23.8688 25.56 22.6808C25.56 21.4928 26.532 20.5208 27.7201 20.5208C28.9081 20.5208 29.8801 21.4928 29.8801 22.6808C29.8801 23.8688 28.9081 24.8408 27.7201 24.8408ZM27.7201 26.2808C26.352 26.2808 25.056 26.7128 24.012 27.4688C23.04 25.0928 20.7001 23.4008 18 23.4008C15.3 23.4008 12.96 25.0928 11.988 27.4688C10.944 26.7488 9.64805 26.2808 8.28005 26.2808C4.71605 26.2808 1.80005 29.1968 1.80005 32.7608V33.4808C1.80005 33.8768 2.12405 34.2008 2.52005 34.2008H33.48C33.876 34.2008 34.2001 33.8768 34.2001 33.4808V32.7608C34.2001 29.1968 31.284 26.2808 27.7201 26.2808ZM11.52 29.8808V32.7608H3.24005C3.24005 29.9888 5.50805 27.7208 8.28005 27.7208C9.54005 27.7208 10.692 28.1888 11.592 28.9808C11.556 29.2688 11.52 29.5568 11.52 29.8808ZM23.0401 32.7608H12.96V29.8808C12.96 27.1088 15.228 24.8408 18 24.8408C20.772 24.8408 23.0401 27.1088 23.0401 29.8808V32.7608ZM24.48 32.7608V29.8808C24.48 29.5568 24.4441 29.2688 24.4081 28.9808C25.3081 28.2248 26.4601 27.7208 27.7201 27.7208C30.4921 27.7208 32.76 29.9888 32.76 32.7608H24.48ZM11.88 22.6808C11.88 20.7008 10.26 19.0808 8.28005 19.0808C6.30005 19.0808 4.68005 20.7008 4.68005 22.6808C4.68005 24.6608 6.30005 26.2808 8.28005 26.2808C10.26 26.2808 11.88 24.6608 11.88 22.6808ZM8.28005 24.8408C7.09205 24.8408 6.12005 23.8688 6.12005 22.6808C6.12005 21.4928 7.09205 20.5208 8.28005 20.5208C9.46805 20.5208 10.44 21.4928 10.44 22.6808C10.44 23.8688 9.46805 24.8408 8.28005 24.8408ZM21.6 19.8008C21.6 17.8208 19.98 16.2008 18 16.2008C16.02 16.2008 14.4 17.8208 14.4 19.8008C14.4 21.7808 16.02 23.4008 18 23.4008C19.98 23.4008 21.6 21.7808 21.6 19.8008ZM18 21.9608C16.812 21.9608 15.84 20.9888 15.84 19.8008C15.84 18.6128 16.812 17.6408 18 17.6408C19.188 17.6408 20.16 18.6128 20.16 19.8008C20.16 20.9888 19.188 21.9608 18 21.9608ZM4.64405 9.18078L4.10405 12.4568C4.06805 12.7448 4.17605 12.9968 4.39205 13.1768C4.60805 13.3208 4.93205 13.3568 5.14805 13.2128L7.92005 11.7008L10.692 13.2128C10.8 13.2848 10.908 13.2848 11.052 13.2848C11.196 13.2848 11.34 13.2488 11.448 13.1408C11.664 12.9968 11.808 12.7088 11.736 12.4208L11.196 9.14478L12.96 7.34478L14.724 9.14478L14.184 12.4208C14.1481 12.7088 14.256 12.9608 14.472 13.1408C14.688 13.2848 15.012 13.3208 15.228 13.1768L18 11.6648L20.772 13.1768C20.8801 13.2488 20.9881 13.2488 21.132 13.2488C21.2761 13.2488 21.42 13.2128 21.528 13.1048C21.744 12.9608 21.888 12.6728 21.816 12.3848L21.276 9.10878L23.0401 7.30878L24.8041 9.10878L24.264 12.3848C24.2281 12.6728 24.336 12.9248 24.552 13.1048C24.768 13.2488 25.0921 13.2848 25.3081 13.1408L28.08 11.6288L30.852 13.1408C30.96 13.2128 31.068 13.2128 31.212 13.2128C31.356 13.2128 31.5001 13.1768 31.6081 13.0688C31.8241 12.9248 31.9681 12.6368 31.896 12.3488L31.356 9.07278L33.6241 6.73278C33.8041 6.55278 33.876 6.26478 33.8041 6.01278C33.732 5.76078 33.4801 5.58078 33.2281 5.54478L30.132 5.07678L28.7281 2.12478C28.6201 1.98078 28.368 1.80078 28.08 1.80078C27.792 1.80078 27.54 1.98078 27.432 2.19678L26.0281 5.14878L23.0401 5.65278L20.052 5.18478L18.648 2.23278C18.54 1.98078 18.288 1.80078 18 1.80078C17.712 1.80078 17.46 1.98078 17.352 2.19678L15.948 5.14878L12.96 5.65278L9.97205 5.18478L8.56805 2.23278C8.46005 1.98078 8.20805 1.80078 7.92005 1.80078C7.63205 1.80078 7.38005 1.98078 7.27205 2.19678L5.86805 5.14878L2.77205 5.61678C2.52005 5.65278 2.26805 5.83278 2.19605 6.08478C2.12405 6.33678 2.16005 6.62478 2.37605 6.80478L4.64405 9.18078ZM26.64 6.55278C26.892 6.51678 27.0721 6.37278 27.18 6.15678L28.08 4.21278L28.98 6.15678C29.0881 6.37278 29.268 6.51678 29.5201 6.55278L31.6081 6.87678L30.06 8.46078C29.8801 8.64078 29.8081 8.85678 29.8801 9.07278L30.24 11.2688L28.4401 10.2608C28.3321 10.1888 28.2241 10.1888 28.08 10.1888C27.9361 10.1888 27.8281 10.2248 27.7201 10.2608L25.92 11.2688L26.2801 9.07278C26.316 8.85678 26.244 8.60478 26.1 8.46078L24.552 6.87678L26.64 6.55278ZM16.56 6.55278C16.812 6.51678 16.992 6.37278 17.1 6.15678L18 4.21278L18.9 6.15678C19.008 6.37278 19.188 6.51678 19.4401 6.55278L21.528 6.87678L19.98 8.46078C19.8 8.64078 19.7281 8.85678 19.8 9.07278L20.16 11.2688L18.3601 10.2608C18.2521 10.1888 18.144 10.1888 18 10.1888C17.856 10.1888 17.748 10.2248 17.64 10.2608L15.84 11.2688L16.2 9.07278C16.236 8.85678 16.164 8.60478 16.02 8.46078L14.472 6.87678L16.56 6.55278ZM6.48005 6.55278C6.73205 6.51678 6.91205 6.37278 7.02005 6.15678L7.92005 4.21278L8.82005 6.15678C8.92805 6.37278 9.10805 6.51678 9.36005 6.55278L11.448 6.87678L9.90005 8.46078C9.72005 8.64078 9.64805 8.85678 9.72005 9.07278L10.08 11.2688L8.28005 10.2608C8.17205 10.1888 8.06405 10.1888 7.92005 10.1888C7.77605 10.1888 7.66805 10.2248 7.56005 10.2608L5.76005 11.2688L6.12005 9.07278C6.15605 8.85678 6.08405 8.60478 5.94005 8.46078L4.39205 6.87678L6.48005 6.55278Z"/>
</mask>
<path d="M31.32 22.6808C31.32 20.7008 29.7001 19.0808 27.7201 19.0808C25.74 19.0808 24.1201 20.7008 24.1201 22.6808C24.1201 24.6608 25.74 26.2808 27.7201 26.2808C29.7001 26.2808 31.32 24.6608 31.32 22.6808ZM27.7201 24.8408C26.532 24.8408 25.56 23.8688 25.56 22.6808C25.56 21.4928 26.532 20.5208 27.7201 20.5208C28.9081 20.5208 29.8801 21.4928 29.8801 22.6808C29.8801 23.8688 28.9081 24.8408 27.7201 24.8408ZM27.7201 26.2808C26.352 26.2808 25.056 26.7128 24.012 27.4688C23.04 25.0928 20.7001 23.4008 18 23.4008C15.3 23.4008 12.96 25.0928 11.988 27.4688C10.944 26.7488 9.64805 26.2808 8.28005 26.2808C4.71605 26.2808 1.80005 29.1968 1.80005 32.7608V33.4808C1.80005 33.8768 2.12405 34.2008 2.52005 34.2008H33.48C33.876 34.2008 34.2001 33.8768 34.2001 33.4808V32.7608C34.2001 29.1968 31.284 26.2808 27.7201 26.2808ZM11.52 29.8808V32.7608H3.24005C3.24005 29.9888 5.50805 27.7208 8.28005 27.7208C9.54005 27.7208 10.692 28.1888 11.592 28.9808C11.556 29.2688 11.52 29.5568 11.52 29.8808ZM23.0401 32.7608H12.96V29.8808C12.96 27.1088 15.228 24.8408 18 24.8408C20.772 24.8408 23.0401 27.1088 23.0401 29.8808V32.7608ZM24.48 32.7608V29.8808C24.48 29.5568 24.4441 29.2688 24.4081 28.9808C25.3081 28.2248 26.4601 27.7208 27.7201 27.7208C30.4921 27.7208 32.76 29.9888 32.76 32.7608H24.48ZM11.88 22.6808C11.88 20.7008 10.26 19.0808 8.28005 19.0808C6.30005 19.0808 4.68005 20.7008 4.68005 22.6808C4.68005 24.6608 6.30005 26.2808 8.28005 26.2808C10.26 26.2808 11.88 24.6608 11.88 22.6808ZM8.28005 24.8408C7.09205 24.8408 6.12005 23.8688 6.12005 22.6808C6.12005 21.4928 7.09205 20.5208 8.28005 20.5208C9.46805 20.5208 10.44 21.4928 10.44 22.6808C10.44 23.8688 9.46805 24.8408 8.28005 24.8408ZM21.6 19.8008C21.6 17.8208 19.98 16.2008 18 16.2008C16.02 16.2008 14.4 17.8208 14.4 19.8008C14.4 21.7808 16.02 23.4008 18 23.4008C19.98 23.4008 21.6 21.7808 21.6 19.8008ZM18 21.9608C16.812 21.9608 15.84 20.9888 15.84 19.8008C15.84 18.6128 16.812 17.6408 18 17.6408C19.188 17.6408 20.16 18.6128 20.16 19.8008C20.16 20.9888 19.188 21.9608 18 21.9608ZM4.64405 9.18078L4.10405 12.4568C4.06805 12.7448 4.17605 12.9968 4.39205 13.1768C4.60805 13.3208 4.93205 13.3568 5.14805 13.2128L7.92005 11.7008L10.692 13.2128C10.8 13.2848 10.908 13.2848 11.052 13.2848C11.196 13.2848 11.34 13.2488 11.448 13.1408C11.664 12.9968 11.808 12.7088 11.736 12.4208L11.196 9.14478L12.96 7.34478L14.724 9.14478L14.184 12.4208C14.1481 12.7088 14.256 12.9608 14.472 13.1408C14.688 13.2848 15.012 13.3208 15.228 13.1768L18 11.6648L20.772 13.1768C20.8801 13.2488 20.9881 13.2488 21.132 13.2488C21.2761 13.2488 21.42 13.2128 21.528 13.1048C21.744 12.9608 21.888 12.6728 21.816 12.3848L21.276 9.10878L23.0401 7.30878L24.8041 9.10878L24.264 12.3848C24.2281 12.6728 24.336 12.9248 24.552 13.1048C24.768 13.2488 25.0921 13.2848 25.3081 13.1408L28.08 11.6288L30.852 13.1408C30.96 13.2128 31.068 13.2128 31.212 13.2128C31.356 13.2128 31.5001 13.1768 31.6081 13.0688C31.8241 12.9248 31.9681 12.6368 31.896 12.3488L31.356 9.07278L33.6241 6.73278C33.8041 6.55278 33.876 6.26478 33.8041 6.01278C33.732 5.76078 33.4801 5.58078 33.2281 5.54478L30.132 5.07678L28.7281 2.12478C28.6201 1.98078 28.368 1.80078 28.08 1.80078C27.792 1.80078 27.54 1.98078 27.432 2.19678L26.0281 5.14878L23.0401 5.65278L20.052 5.18478L18.648 2.23278C18.54 1.98078 18.288 1.80078 18 1.80078C17.712 1.80078 17.46 1.98078 17.352 2.19678L15.948 5.14878L12.96 5.65278L9.97205 5.18478L8.56805 2.23278C8.46005 1.98078 8.20805 1.80078 7.92005 1.80078C7.63205 1.80078 7.38005 1.98078 7.27205 2.19678L5.86805 5.14878L2.77205 5.61678C2.52005 5.65278 2.26805 5.83278 2.19605 6.08478C2.12405 6.33678 2.16005 6.62478 2.37605 6.80478L4.64405 9.18078ZM26.64 6.55278C26.892 6.51678 27.0721 6.37278 27.18 6.15678L28.08 4.21278L28.98 6.15678C29.0881 6.37278 29.268 6.51678 29.5201 6.55278L31.6081 6.87678L30.06 8.46078C29.8801 8.64078 29.8081 8.85678 29.8801 9.07278L30.24 11.2688L28.4401 10.2608C28.3321 10.1888 28.2241 10.1888 28.08 10.1888C27.9361 10.1888 27.8281 10.2248 27.7201 10.2608L25.92 11.2688L26.2801 9.07278C26.316 8.85678 26.244 8.60478 26.1 8.46078L24.552 6.87678L26.64 6.55278ZM16.56 6.55278C16.812 6.51678 16.992 6.37278 17.1 6.15678L18 4.21278L18.9 6.15678C19.008 6.37278 19.188 6.51678 19.4401 6.55278L21.528 6.87678L19.98 8.46078C19.8 8.64078 19.7281 8.85678 19.8 9.07278L20.16 11.2688L18.3601 10.2608C18.2521 10.1888 18.144 10.1888 18 10.1888C17.856 10.1888 17.748 10.2248 17.64 10.2608L15.84 11.2688L16.2 9.07278C16.236 8.85678 16.164 8.60478 16.02 8.46078L14.472 6.87678L16.56 6.55278ZM6.48005 6.55278C6.73205 6.51678 6.91205 6.37278 7.02005 6.15678L7.92005 4.21278L8.82005 6.15678C8.92805 6.37278 9.10805 6.51678 9.36005 6.55278L11.448 6.87678L9.90005 8.46078C9.72005 8.64078 9.64805 8.85678 9.72005 9.07278L10.08 11.2688L8.28005 10.2608C8.17205 10.1888 8.06405 10.1888 7.92005 10.1888C7.77605 10.1888 7.66805 10.2248 7.56005 10.2608L5.76005 11.2688L6.12005 9.07278C6.15605 8.85678 6.08405 8.60478 5.94005 8.46078L4.39205 6.87678L6.48005 6.55278Z" fill="#CAA731"/>
<path d="M31.32 22.6808C31.32 20.7008 29.7001 19.0808 27.7201 19.0808C25.74 19.0808 24.1201 20.7008 24.1201 22.6808C24.1201 24.6608 25.74 26.2808 27.7201 26.2808C29.7001 26.2808 31.32 24.6608 31.32 22.6808ZM27.7201 24.8408C26.532 24.8408 25.56 23.8688 25.56 22.6808C25.56 21.4928 26.532 20.5208 27.7201 20.5208C28.9081 20.5208 29.8801 21.4928 29.8801 22.6808C29.8801 23.8688 28.9081 24.8408 27.7201 24.8408ZM27.7201 26.2808C26.352 26.2808 25.056 26.7128 24.012 27.4688C23.04 25.0928 20.7001 23.4008 18 23.4008C15.3 23.4008 12.96 25.0928 11.988 27.4688C10.944 26.7488 9.64805 26.2808 8.28005 26.2808C4.71605 26.2808 1.80005 29.1968 1.80005 32.7608V33.4808C1.80005 33.8768 2.12405 34.2008 2.52005 34.2008H33.48C33.876 34.2008 34.2001 33.8768 34.2001 33.4808V32.7608C34.2001 29.1968 31.284 26.2808 27.7201 26.2808ZM11.52 29.8808V32.7608H3.24005C3.24005 29.9888 5.50805 27.7208 8.28005 27.7208C9.54005 27.7208 10.692 28.1888 11.592 28.9808C11.556 29.2688 11.52 29.5568 11.52 29.8808ZM23.0401 32.7608H12.96V29.8808C12.96 27.1088 15.228 24.8408 18 24.8408C20.772 24.8408 23.0401 27.1088 23.0401 29.8808V32.7608ZM24.48 32.7608V29.8808C24.48 29.5568 24.4441 29.2688 24.4081 28.9808C25.3081 28.2248 26.4601 27.7208 27.7201 27.7208C30.4921 27.7208 32.76 29.9888 32.76 32.7608H24.48ZM11.88 22.6808C11.88 20.7008 10.26 19.0808 8.28005 19.0808C6.30005 19.0808 4.68005 20.7008 4.68005 22.6808C4.68005 24.6608 6.30005 26.2808 8.28005 26.2808C10.26 26.2808 11.88 24.6608 11.88 22.6808ZM8.28005 24.8408C7.09205 24.8408 6.12005 23.8688 6.12005 22.6808C6.12005 21.4928 7.09205 20.5208 8.28005 20.5208C9.46805 20.5208 10.44 21.4928 10.44 22.6808C10.44 23.8688 9.46805 24.8408 8.28005 24.8408ZM21.6 19.8008C21.6 17.8208 19.98 16.2008 18 16.2008C16.02 16.2008 14.4 17.8208 14.4 19.8008C14.4 21.7808 16.02 23.4008 18 23.4008C19.98 23.4008 21.6 21.7808 21.6 19.8008ZM18 21.9608C16.812 21.9608 15.84 20.9888 15.84 19.8008C15.84 18.6128 16.812 17.6408 18 17.6408C19.188 17.6408 20.16 18.6128 20.16 19.8008C20.16 20.9888 19.188 21.9608 18 21.9608ZM4.64405 9.18078L4.10405 12.4568C4.06805 12.7448 4.17605 12.9968 4.39205 13.1768C4.60805 13.3208 4.93205 13.3568 5.14805 13.2128L7.92005 11.7008L10.692 13.2128C10.8 13.2848 10.908 13.2848 11.052 13.2848C11.196 13.2848 11.34 13.2488 11.448 13.1408C11.664 12.9968 11.808 12.7088 11.736 12.4208L11.196 9.14478L12.96 7.34478L14.724 9.14478L14.184 12.4208C14.1481 12.7088 14.256 12.9608 14.472 13.1408C14.688 13.2848 15.012 13.3208 15.228 13.1768L18 11.6648L20.772 13.1768C20.8801 13.2488 20.9881 13.2488 21.132 13.2488C21.2761 13.2488 21.42 13.2128 21.528 13.1048C21.744 12.9608 21.888 12.6728 21.816 12.3848L21.276 9.10878L23.0401 7.30878L24.8041 9.10878L24.264 12.3848C24.2281 12.6728 24.336 12.9248 24.552 13.1048C24.768 13.2488 25.0921 13.2848 25.3081 13.1408L28.08 11.6288L30.852 13.1408C30.96 13.2128 31.068 13.2128 31.212 13.2128C31.356 13.2128 31.5001 13.1768 31.6081 13.0688C31.8241 12.9248 31.9681 12.6368 31.896 12.3488L31.356 9.07278L33.6241 6.73278C33.8041 6.55278 33.876 6.26478 33.8041 6.01278C33.732 5.76078 33.4801 5.58078 33.2281 5.54478L30.132 5.07678L28.7281 2.12478C28.6201 1.98078 28.368 1.80078 28.08 1.80078C27.792 1.80078 27.54 1.98078 27.432 2.19678L26.0281 5.14878L23.0401 5.65278L20.052 5.18478L18.648 2.23278C18.54 1.98078 18.288 1.80078 18 1.80078C17.712 1.80078 17.46 1.98078 17.352 2.19678L15.948 5.14878L12.96 5.65278L9.97205 5.18478L8.56805 2.23278C8.46005 1.98078 8.20805 1.80078 7.92005 1.80078C7.63205 1.80078 7.38005 1.98078 7.27205 2.19678L5.86805 5.14878L2.77205 5.61678C2.52005 5.65278 2.26805 5.83278 2.19605 6.08478C2.12405 6.33678 2.16005 6.62478 2.37605 6.80478L4.64405 9.18078ZM26.64 6.55278C26.892 6.51678 27.0721 6.37278 27.18 6.15678L28.08 4.21278L28.98 6.15678C29.0881 6.37278 29.268 6.51678 29.5201 6.55278L31.6081 6.87678L30.06 8.46078C29.8801 8.64078 29.8081 8.85678 29.8801 9.07278L30.24 11.2688L28.4401 10.2608C28.3321 10.1888 28.2241 10.1888 28.08 10.1888C27.9361 10.1888 27.8281 10.2248 27.7201 10.2608L25.92 11.2688L26.2801 9.07278C26.316 8.85678 26.244 8.60478 26.1 8.46078L24.552 6.87678L26.64 6.55278ZM16.56 6.55278C16.812 6.51678 16.992 6.37278 17.1 6.15678L18 4.21278L18.9 6.15678C19.008 6.37278 19.188 6.51678 19.4401 6.55278L21.528 6.87678L19.98 8.46078C19.8 8.64078 19.7281 8.85678 19.8 9.07278L20.16 11.2688L18.3601 10.2608C18.2521 10.1888 18.144 10.1888 18 10.1888C17.856 10.1888 17.748 10.2248 17.64 10.2608L15.84 11.2688L16.2 9.07278C16.236 8.85678 16.164 8.60478 16.02 8.46078L14.472 6.87678L16.56 6.55278ZM6.48005 6.55278C6.73205 6.51678 6.91205 6.37278 7.02005 6.15678L7.92005 4.21278L8.82005 6.15678C8.92805 6.37278 9.10805 6.51678 9.36005 6.55278L11.448 6.87678L9.90005 8.46078C9.72005 8.64078 9.64805 8.85678 9.72005 9.07278L10.08 11.2688L8.28005 10.2608C8.17205 10.1888 8.06405 10.1888 7.92005 10.1888C7.77605 10.1888 7.66805 10.2248 7.56005 10.2608L5.76005 11.2688L6.12005 9.07278C6.15605 8.85678 6.08405 8.60478 5.94005 8.46078L4.39205 6.87678L6.48005 6.55278Z" stroke="#CAA731" mask="url(#path-1-outside-1_532_2619)"/>
</svg>
