<svg width="21" height="23" viewBox="0 0 21 23" fill="none" xmlns="http://www.w3.org/2000/svg">
<g clip-path="url(#clip0_532_2565)">
<path fill-rule="evenodd" clip-rule="evenodd" d="M0.724976 11.5595C0.724976 16.8671 4.34082 21.2806 9.06988 22.1756V14.4651H6.56641V11.4999H9.06988V9.12723C9.06988 6.45831 10.683 4.97617 12.9645 4.97617C13.6871 4.97617 14.4665 5.09449 15.1892 5.21281V7.94134H13.9099C12.6857 7.94134 12.4078 8.59344 12.4078 9.42437V11.4999H15.0782L14.6334 14.4651H12.4078V22.1756C17.1369 21.2806 20.7528 16.868 20.7528 11.5595C20.7528 5.65496 16.2465 0.824219 10.7389 0.824219C5.23123 0.824219 0.724976 5.65496 0.724976 11.5595Z" fill="#FEFEFF"/>
</g>
<defs>
<clipPath id="clip0_532_2565">
<rect width="20.0278" height="21.3514" fill="white" transform="translate(0.724976 0.824219)"/>
</clipPath>
</defs>
</svg>
