<svg width="21" height="22" viewBox="0 0 21 22" fill="none" xmlns="http://www.w3.org/2000/svg">
<path d="M13.4513 15.7228L15.1759 13.8843C15.4082 13.6397 15.7021 13.4723 16.0219 13.4024C16.3417 13.3324 16.6737 13.363 16.9775 13.4903L19.0793 14.385C19.3864 14.5178 19.6497 14.7446 19.836 15.0367C20.0223 15.3289 20.1234 15.6733 20.1264 16.0265V20.1305C20.1246 20.3708 20.0772 20.6082 19.9871 20.8285C19.897 21.0487 19.766 21.2473 19.602 21.4122C19.438 21.577 19.2444 21.7048 19.0328 21.7878C18.8213 21.8708 18.5962 21.9073 18.371 21.8951C3.64275 20.9184 0.670917 7.62168 0.108886 2.53281C0.0827962 2.28291 0.106634 2.02996 0.17883 1.79059C0.251027 1.55121 0.369947 1.33085 0.527766 1.14399C0.685585 0.957135 0.878727 0.808019 1.09449 0.706455C1.31024 0.60489 1.54373 0.553178 1.77958 0.554721H5.49822C5.83006 0.555768 6.15401 0.662628 6.42842 0.861555C6.70282 1.06048 6.91513 1.34238 7.03803 1.67099L7.87723 3.91173C8.00061 4.23436 8.03208 4.58859 7.96773 4.93017C7.90337 5.27176 7.74603 5.58556 7.51537 5.83237L5.79078 7.67093C5.79078 7.67093 6.78396 14.8364 13.4513 15.7228Z" fill="#FEFEFF"/>
</svg>
