<svg width="32" height="32" viewBox="0 0 32 32" fill="none" xmlns="http://www.w3.org/2000/svg">
<path d="M13.0701 4.34748C13.3051 2.48048 14.7671 0.848481 16.8361 1.00448C17.8721 1.08348 18.7181 1.71748 19.2391 2.51348C19.6191 3.09148 19.8561 3.79348 19.8951 4.53848C20.1111 4.33348 20.3491 4.15048 20.6031 3.99848C21.3621 3.54248 22.3761 3.29748 23.3951 3.71448C24.0211 3.97148 24.6801 4.41048 25.1251 5.09248C25.5891 5.80248 25.7651 6.69048 25.5381 7.70248C25.4631 8.03948 25.2561 8.65248 25.0131 9.34448C24.8291 9.87048 24.6081 10.4845 24.3751 11.1305L24.1171 11.8465C23.8151 12.6865 23.5111 13.5415 23.2441 14.3245C23.5161 14.1285 23.7621 13.9425 23.9511 13.7975C24.7791 13.1575 25.6491 12.5875 26.7211 12.4775C27.7231 12.3735 28.6511 12.7705 29.4511 13.7115C30.2511 14.6545 30.4811 15.6555 30.3181 16.5575C30.1779 17.3056 29.7832 17.9822 29.2011 18.4725C26.3671 20.8205 24.2551 22.6085 22.5221 25.6085C20.4061 29.2745 16.6751 30.9115 13.6711 31.0015L13.6311 31.0025L13.5921 31.0005C11.8311 30.9155 10.0671 30.4835 8.49706 29.4705C6.92006 28.4505 5.60506 26.8855 4.68406 24.6455C4.10406 23.2315 3.80806 21.3585 3.63706 19.7945C3.56152 19.0844 3.49917 18.3729 3.45006 17.6605L3.42706 17.3365C3.39706 16.9185 3.37706 16.6255 3.35606 16.4555L2.16306 10.3875L2.15706 10.3575L2.15206 10.3265C2.03602 9.45192 2.26796 8.56676 2.79799 7.8615C3.32801 7.15624 4.11373 6.68725 4.98606 6.55548H4.99106C5.70491 6.44543 6.43513 6.57334 7.06906 6.91948L7.06306 6.79248C7.01606 5.74448 7.39106 4.86948 8.03306 4.25648C8.65606 3.66248 9.47806 3.36448 10.2761 3.32648C11.0751 3.28848 11.9221 3.50848 12.5981 4.04348C12.7641 4.17548 12.9161 4.32348 13.0531 4.48648L13.0701 4.34648V4.34748ZM12.2511 10.4405V10.4385L12.2541 10.4285L12.2531 10.4345C12.2525 10.4365 12.2518 10.4385 12.2511 10.4405ZM6.93606 9.80448C6.69206 8.88848 5.99306 8.43248 5.27906 8.53448C4.55906 8.64248 4.04906 9.30748 4.13206 10.0365L5.32506 16.1035L5.33106 16.1345L5.33506 16.1665C5.36506 16.3965 5.39306 16.7815 5.42406 17.2255L5.44406 17.5165C5.48706 18.1065 5.54206 18.8195 5.62506 19.5765C5.79406 21.1205 6.06806 22.7515 6.53506 23.8845C7.31906 25.7945 8.38706 27.0175 9.58306 27.7895C10.7751 28.5605 12.1601 28.9235 13.6501 29.0015C16.0451 28.9165 19.0721 27.5835 20.7901 24.6085C22.7231 21.2625 25.1021 19.2725 27.9241 16.9325C28.0971 16.7895 28.2931 16.5185 28.3501 16.2015C28.3991 15.9315 28.3681 15.5285 27.9251 15.0055C27.4801 14.4815 27.1661 14.4415 26.9251 14.4655C26.5741 14.5025 26.1451 14.7105 25.5361 15.0955L25.4691 15.1485C25.0557 15.4774 24.6328 15.7942 24.2011 16.0985C23.8251 16.3635 23.4011 16.6445 22.9971 16.8755C22.6231 17.0905 22.1601 17.3235 21.7311 17.4045C21.5663 17.4353 21.3964 17.4242 21.237 17.3723C21.0776 17.3203 20.9338 17.229 20.8189 17.107C20.704 16.9849 20.6216 16.8359 20.5794 16.6736C20.5371 16.5114 20.5363 16.3411 20.5771 16.1785C20.8731 14.9945 21.5881 12.9715 22.2351 11.1705L22.4951 10.4455C22.7281 9.80148 22.9451 9.19948 23.1261 8.68248C23.3831 7.94948 23.5431 7.46148 23.5861 7.26448C23.7031 6.74548 23.6011 6.41448 23.4511 6.18648C23.2851 5.93148 22.9981 5.71348 22.6371 5.56548C22.3581 5.45148 22.0141 5.48348 21.6331 5.71248C21.2411 5.94748 20.9351 6.32548 20.8091 6.65448C20.5351 7.36848 20.2601 8.09448 20.0061 8.76648V8.76748L20.0051 8.77048L19.4941 10.1185L19.2331 10.7975L18.3741 13.0935C18.3302 13.2192 18.2616 13.3348 18.1724 13.4337C18.0832 13.5325 17.9752 13.6126 17.8546 13.6691C17.7341 13.7256 17.6035 13.7575 17.4704 13.7629C17.3374 13.7683 17.2046 13.7471 17.0799 13.7005C16.9552 13.6538 16.841 13.5828 16.7441 13.4915C16.6473 13.4002 16.5696 13.2904 16.5157 13.1687C16.4617 13.047 16.4327 12.9157 16.4302 12.7826C16.4277 12.6494 16.4518 12.5172 16.5011 12.3935L16.9701 11.1385C16.971 11.1215 16.9723 11.1044 16.9741 11.0875L16.9761 11.0625L16.9801 11.0385L17.8701 5.11648L17.8721 5.10348C17.9587 4.5849 17.8501 4.0526 17.5671 3.60948C17.3021 3.20548 16.9651 3.01948 16.6861 2.99948C15.9261 2.94148 15.1901 3.52248 15.0551 4.59648C14.8719 6.05603 14.6819 7.51471 14.4851 8.97248C14.4237 9.43018 14.3597 9.88752 14.2931 10.3445L14.1191 11.9065C14.0899 12.1701 13.9572 12.4113 13.7501 12.5771C13.5431 12.7429 13.2787 12.8197 13.0151 12.7905C12.7514 12.7613 12.5102 12.6286 12.3444 12.4216C12.1786 12.2145 12.1019 11.9501 12.1311 11.6865L12.2291 10.8065C12.2261 10.7866 12.2238 10.7665 12.2221 10.7465V10.7285L11.8021 6.63248L11.7991 6.60448L11.7981 6.57648C11.7751 6.08248 11.5831 5.79148 11.3571 5.61248C11.1101 5.41648 10.7551 5.30648 10.3701 5.32448C9.98506 5.34248 9.64206 5.48548 9.41306 5.70448C9.20306 5.90448 9.03906 6.21248 9.06206 6.70448V6.70648C9.12406 8.14148 9.23206 9.47148 9.32106 10.4215C9.40806 11.3605 9.50606 12.2965 9.68406 13.2225L9.69706 13.2855L9.70006 13.3015V13.3055C9.74729 13.564 9.69087 13.8307 9.543 14.0479C9.39513 14.2652 9.16769 14.4155 8.90987 14.4663C8.65205 14.5172 8.38457 14.4645 8.16529 14.3197C7.946 14.1749 7.79253 13.9496 7.73806 13.6925V13.6865L7.73406 13.6685L7.72106 13.6015C7.65252 13.2482 7.58785 12.8942 7.52706 12.5395C7.48706 12.3065 7.44306 12.0495 7.40306 11.7885L6.93606 9.80448ZM9.10306 17.8715C10.2611 17.7895 12.1331 17.6775 14.0181 17.7545C14.6621 17.7815 15.2861 17.8295 15.8721 17.9035L15.6821 17.9905C13.8151 18.8535 11.4791 20.3225 9.75006 22.7285C9.67344 22.8352 9.61858 22.9559 9.58861 23.0838C9.55865 23.2117 9.55418 23.3443 9.57544 23.4739C9.61839 23.7357 9.76357 23.9697 9.97906 24.1245C10.1946 24.2792 10.4627 24.342 10.7245 24.2991C10.9863 24.2562 11.2203 24.111 11.3751 23.8955C12.8341 21.8645 14.8411 20.5825 16.5211 19.8055C17.2033 19.4895 17.9071 19.2222 18.6271 19.0055C18.8817 18.9292 19.1389 18.8615 19.3981 18.8025L19.4341 18.7945H19.4411C19.6434 18.7556 19.8287 18.6552 19.9718 18.507C20.1149 18.3588 20.2087 18.17 20.2404 17.9665C20.2721 17.763 20.2402 17.5546 20.1491 17.3699C20.0579 17.1852 19.9119 17.0331 19.7311 16.9345C18.2351 16.1145 16.0571 15.8375 14.1011 15.7565C12.0981 15.6745 10.1351 15.7935 8.96006 15.8765C8.69551 15.8954 8.44932 16.0187 8.27567 16.2192C8.10201 16.4197 8.0151 16.6809 8.03406 16.9455C8.05303 17.21 8.17631 17.4562 8.37678 17.6299C8.57726 17.8035 8.83851 17.8904 9.10306 17.8715Z" fill="#CAA731"/>
</svg>
