<svg width="32" height="32" viewBox="0 0 32 32" fill="none" xmlns="http://www.w3.org/2000/svg">
<g clip-path="url(#clip0_532_2634)">
<mask id="path-1-outside-1_532_2634" maskUnits="userSpaceOnUse" x="-0.998291" y="-1" width="34" height="34" fill="black">
<rect fill="white" x="-0.998291" y="-1" width="34" height="34"/>
<path d="M31.935 24.6407C31.8623 24.4209 31.7262 24.2274 31.544 24.0846C31.3618 23.9417 31.1415 23.8558 30.9107 23.8377C30.4112 23.7945 29.9169 23.7041 29.4344 23.5676C29.419 23.5635 27.8767 23.1386 26.6451 22.1298C24.685 20.5245 23.5811 17.8638 23.5366 14.6382C23.516 13.1423 23.4365 11.1957 23.0124 9.33409C23.5257 9.644 24.114 9.80741 24.7135 9.80659C24.7946 9.80659 24.8761 9.80363 24.958 9.79772C25.0579 9.7905 25.1529 9.75144 25.2291 9.68627C25.3052 9.62109 25.3584 9.53324 25.381 9.43559C25.5508 8.71102 25.4696 7.95027 25.1507 7.27784C25.8798 7.13664 26.5405 6.75537 27.0276 6.19484C27.0932 6.11906 27.1327 6.02427 27.1405 5.92436C27.1482 5.82446 27.1238 5.7247 27.0707 5.63971C26.6758 5.01082 26.0817 4.53228 25.3831 4.28046C25.8019 3.66521 25.9995 2.92601 25.9435 2.18384C25.9363 2.0839 25.8972 1.98891 25.832 1.9128C25.7669 1.83668 25.679 1.78345 25.5814 1.7609C24.8568 1.59088 24.0959 1.67209 23.4234 1.99121C23.2823 1.2622 22.9011 0.601445 22.3407 0.114339C22.2649 0.0487494 22.1701 0.00916978 22.0702 0.00140829C21.9703 -0.0063532 21.8705 0.0181121 21.7855 0.0712141C21.1567 0.466061 20.6781 1.06015 20.4263 1.75871C19.8111 1.33986 19.0718 1.14231 18.3297 1.1984C18.2297 1.20561 18.1347 1.24466 18.0586 1.30982C17.9825 1.37498 17.9292 1.46283 17.9067 1.56046C17.8559 1.78177 17.8276 2.00765 17.8223 2.23465C16.1334 1.31116 14.2108 0.90316 12.2925 1.06115C8.51561 1.41053 6.00498 2.4349 3.89748 4.48646C1.53942 6.78203 0.901107 9.53771 0.558107 11.0182C-0.126768 13.975 -0.181206 17.2085 0.404919 20.1229C1.06504 23.4054 2.50492 26.1888 4.56879 28.1723C6.86067 30.3747 10.0698 31.6802 13.8493 31.9475C14.3383 31.9821 14.8358 31.9993 15.3419 31.9992C18.0956 31.9992 21.0582 31.4908 23.8348 30.5304C25.7884 29.8547 28.7323 28.1863 29.6201 27.5394C30.6286 26.8045 31.5587 25.9543 31.5994 25.917L31.6141 25.9035C31.786 25.748 31.9081 25.5452 31.9652 25.3205C32.0223 25.0959 32.0118 24.8594 31.9351 24.6407H31.935ZM26.0582 5.8404C25.7434 6.10691 25.3647 6.28678 24.9592 6.36225C24.5538 6.43772 24.1357 6.40619 23.7461 6.27078C23.8882 5.88306 23.9207 5.46371 23.8402 5.05871C24.0406 5.0221 24.245 5.01164 24.4482 5.02759C24.7569 5.0501 25.0581 5.13351 25.3344 5.27302C25.6108 5.41252 25.8567 5.60536 26.0582 5.8404ZM23.4564 3.0559C23.9054 2.73146 24.4548 2.57661 25.0071 2.61884C24.9635 3.17102 24.7258 3.68994 24.3363 4.08371C24.0399 4.07701 23.744 4.11076 23.4567 4.18403C23.4214 4.13514 23.3842 4.08766 23.3451 4.04171C23.3057 3.99602 23.2645 3.9519 23.2217 3.90946C23.3384 3.63694 23.4173 3.34977 23.4564 3.0559ZM23.1002 7.19928C23.1458 7.15991 23.1899 7.11876 23.2323 7.0759C23.5048 7.19256 23.792 7.27151 24.0859 7.31059C24.4101 7.75969 24.5649 8.309 24.5229 8.86128C23.9708 8.81745 23.452 8.5799 23.0581 8.19059C23.0648 7.89425 23.0311 7.59838 22.9579 7.31115C23.0068 7.27576 23.0542 7.23844 23.1002 7.19928ZM21.1734 2.69365C21.1959 2.38495 21.2794 2.08375 21.4189 1.80745C21.5584 1.53114 21.7512 1.28519 21.9862 1.08378C22.2528 1.39847 22.4326 1.77722 22.5081 2.18266C22.5836 2.58809 22.552 3.0062 22.4165 3.39571C22.0288 3.25379 21.6095 3.22118 21.2045 3.30146C21.1678 3.10108 21.1574 2.89679 21.1734 2.69371V2.69365ZM20.3449 5.4284C20.346 5.40765 20.3476 5.38699 20.3497 5.3664C20.3537 5.32556 20.3597 5.28494 20.3675 5.24465C20.3717 5.22353 20.3767 5.20278 20.3819 5.18196C20.3884 5.15542 20.3959 5.12911 20.4042 5.10303C20.4151 5.06805 20.4275 5.03356 20.4414 4.99965C20.4485 4.98259 20.4562 4.9659 20.464 4.94915C20.4761 4.92303 20.4891 4.89726 20.5031 4.87184C20.5205 4.83991 20.5392 4.80874 20.5592 4.7784C20.6891 4.58217 20.8698 4.42484 21.082 4.32315C21.0841 4.32221 21.0862 4.32153 21.0883 4.32059C21.1069 4.31178 21.126 4.30396 21.1449 4.29609C21.1535 4.29253 21.1619 4.28859 21.1705 4.28528C21.191 4.27728 21.2118 4.27009 21.2326 4.26321C21.242 4.26009 21.2514 4.25707 21.2608 4.25415C21.2825 4.24746 21.3043 4.24109 21.3262 4.23559C21.3307 4.23446 21.3354 4.23359 21.3399 4.23253C21.3843 4.22196 21.4293 4.21375 21.4745 4.2079C21.4827 4.2069 21.4909 4.20559 21.4991 4.20465C21.5325 4.20106 21.5661 4.19877 21.5997 4.19778C21.6201 4.19715 21.6404 4.1964 21.6608 4.19665L21.6621 4.19671C21.7007 4.19734 21.7392 4.20015 21.7777 4.20415C21.8179 4.2082 21.8579 4.2141 21.8976 4.22184C21.9182 4.2259 21.9386 4.23078 21.959 4.23578C21.9858 4.24244 22.0125 4.24999 22.0389 4.2584C22.0738 4.26934 22.1082 4.28173 22.142 4.29553C22.1596 4.30278 22.1769 4.31078 22.194 4.31884C22.2195 4.33063 22.2445 4.3433 22.2692 4.35684C22.3013 4.37426 22.3326 4.39305 22.363 4.41315C22.5654 4.54676 22.7261 4.73457 22.8268 4.95515C22.842 4.98834 22.8557 5.02216 22.868 5.05653C22.8774 5.08286 22.886 5.1094 22.8937 5.13615C22.899 5.1544 22.9043 5.17271 22.9087 5.19115C22.9172 5.22666 22.9241 5.2625 22.9295 5.29859C22.9337 5.32609 22.9371 5.35369 22.9395 5.3814C22.9414 5.40228 22.943 5.42315 22.9439 5.44415C22.9454 5.48488 22.9451 5.52565 22.9429 5.56634C22.9417 5.58788 22.94 5.60938 22.9379 5.63084C22.9338 5.6714 22.9278 5.71176 22.92 5.75178C22.916 5.77221 22.9111 5.79246 22.9062 5.81265C22.8994 5.83994 22.8917 5.86703 22.8832 5.8939C22.8723 5.92864 22.8599 5.9629 22.8462 5.99659C22.8392 6.0134 22.8315 6.02984 22.8239 6.04628C22.8117 6.07261 22.7986 6.09855 22.7846 6.12409C22.7673 6.156 22.7486 6.18716 22.7285 6.21747C22.6005 6.41092 22.4231 6.56662 22.2146 6.66842C22.0061 6.77022 21.7742 6.81442 21.5429 6.79644C21.3116 6.77846 21.0894 6.69896 20.8991 6.56617C20.7089 6.43338 20.5577 6.25213 20.461 6.04122C20.4459 6.008 20.4321 5.97416 20.4198 5.93978C20.4103 5.91336 20.4017 5.88671 20.3939 5.85984C20.3885 5.8416 20.3835 5.82324 20.3789 5.80478C20.3704 5.76905 20.3635 5.73297 20.358 5.69665C20.3539 5.66994 20.3506 5.64313 20.3482 5.61621C20.3464 5.59465 20.3446 5.57309 20.3437 5.5514C20.3422 5.51041 20.3426 5.46936 20.3449 5.4284ZM22.1142 8.30234C22.0917 8.61106 22.0083 8.91226 21.8688 9.18858C21.7293 9.4649 21.5365 9.71086 21.3014 9.91228C21.0345 9.59783 20.8545 9.21907 20.7791 8.81357C20.7038 8.40808 20.7357 7.98992 20.8719 7.60059C21.0646 7.67107 21.266 7.71485 21.4706 7.73072C21.5298 7.73538 21.5887 7.73767 21.6474 7.73759C21.7934 7.73749 21.9391 7.72309 22.0823 7.69459C22.1192 7.89494 22.1299 8.09923 22.1142 8.30234H22.1142ZM18.7647 2.13465C19.3169 2.17824 19.8358 2.41593 20.2295 2.80559C20.2228 3.10197 20.2566 3.39788 20.3298 3.68515C20.2809 3.72049 20.2335 3.75775 20.1875 3.79684C20.1418 3.8362 20.0977 3.87736 20.0553 3.92021C19.7828 3.80357 19.4956 3.72461 19.2017 3.68553C18.8772 3.23654 18.7224 2.68707 18.7647 2.13471V2.13465ZM20.0659 7.08653C19.9493 7.35908 19.8703 7.64627 19.8312 7.94015C19.3824 8.26482 18.8328 8.41967 18.2805 8.37715C18.3241 7.82466 18.562 7.30547 18.952 6.91172C18.9769 6.91234 19.0017 6.91315 19.0265 6.91315C19.2978 6.91302 19.568 6.87901 19.8309 6.8119C19.8662 6.86084 19.9034 6.90836 19.9425 6.95434C19.9819 7.00001 20.0231 7.04411 20.066 7.08653H20.0659ZM18.9455 4.60078C19.1488 4.61628 19.3491 4.65813 19.5415 4.72528C19.3995 5.11298 19.367 5.5323 19.4475 5.93728C19.0417 6.01104 18.6238 5.97774 18.2348 5.84066C17.8459 5.70358 17.4994 5.46746 17.2295 5.15559C17.4648 4.95446 17.7376 4.80189 18.0321 4.70667C18.3266 4.61145 18.6371 4.57546 18.9455 4.60078ZM30.9808 25.2122L30.9645 25.2272C30.9552 25.2357 30.0328 26.0787 29.068 26.7817C28.3128 27.332 25.4368 28.9842 23.5284 29.6444C20.359 30.7408 16.9451 31.2267 13.9154 31.0123C10.3067 30.7571 7.38054 29.5742 5.21842 27.4963C3.29292 25.6459 1.94629 23.0323 1.32404 19.9381C0.763669 17.1518 0.816044 14.0592 1.47148 11.2297C1.81523 9.74565 2.39067 7.26171 4.55148 5.15821C6.49242 3.26871 8.83336 2.32259 12.379 1.99459C13.2665 1.92628 14.1592 1.98765 15.029 2.17678C16.0528 2.41027 17.03 2.81441 17.9196 3.37228C17.9483 3.38999 17.9788 3.40458 18.0105 3.41578C18.0476 3.51868 18.0898 3.61966 18.1369 3.71834C17.4079 3.8595 16.7472 4.2407 16.26 4.80115C16.1945 4.87693 16.1549 4.97172 16.1472 5.07163C16.1394 5.17154 16.1639 5.2713 16.217 5.35628C16.6118 5.98518 17.206 6.46371 17.9045 6.71553C17.4856 7.33073 17.288 8.06997 17.3442 8.81215C17.3514 8.9121 17.3904 9.00711 17.4556 9.08323C17.5208 9.15936 17.6086 9.21261 17.7062 9.23515C17.9543 9.29269 18.2082 9.32184 18.4629 9.32203C18.9477 9.32215 19.4266 9.21411 19.8644 9.00578C20.0057 9.73442 20.3867 10.3948 20.9469 10.8817C21.0227 10.9473 21.1175 10.9869 21.2174 10.9947C21.3173 11.0024 21.4171 10.978 21.5021 10.9248C21.7814 10.75 22.0329 10.5343 22.2482 10.285C22.5228 11.8318 22.582 13.4023 22.5992 14.6511C22.6475 18.158 23.8735 21.0715 26.0511 22.8552C27.4364 23.9897 29.1187 24.4533 29.1845 24.4712C29.7224 24.623 30.2733 24.7237 30.8301 24.7718C30.879 24.7764 30.9256 24.795 30.9642 24.8255C31.0028 24.8559 31.0318 24.8968 31.0477 24.9433C31.0636 24.9898 31.0658 25.0399 31.0539 25.0876C31.042 25.1353 31.0166 25.1786 30.9808 25.2122ZM10.2039 16.2418C10.1717 16.1894 10.1294 16.1438 10.0796 16.1077C10.0297 16.0716 9.97327 16.0456 9.91339 16.0313C9.85351 16.017 9.7914 16.0147 9.73061 16.0244C9.66982 16.0341 9.61155 16.0557 9.55911 16.088C9.24513 16.2815 8.89032 16.399 8.52292 16.4313C8.01947 16.4692 7.51678 16.3486 7.08529 16.0865C7.03265 16.0546 6.97424 16.0333 6.91339 16.024C6.85254 16.0147 6.79045 16.0174 6.73066 16.0321C6.67087 16.0467 6.61455 16.073 6.56493 16.1094C6.5153 16.1459 6.47333 16.1917 6.44142 16.2443C6.40951 16.297 6.38828 16.3554 6.37894 16.4162C6.36961 16.4771 6.37235 16.5392 6.38701 16.599C6.40167 16.6588 6.42796 16.7151 6.46438 16.7647C6.50081 16.8143 6.54665 16.8563 6.59929 16.8882C7.12227 17.2042 7.7209 17.373 8.33192 17.3768C8.41967 17.3768 8.50967 17.3733 8.60161 17.3655C9.11513 17.3208 9.61112 17.1568 10.0501 16.8867C10.156 16.8215 10.2317 16.717 10.2606 16.5961C10.2894 16.4752 10.269 16.3477 10.2039 16.2418ZM19.6848 11.4803C17.7384 10.0188 15.9803 9.4594 14.4595 9.81734C14.0252 9.91959 13.7545 10.0592 13.3799 10.2523C12.8335 10.5385 12.2707 10.7922 11.6944 11.012C10.6368 11.4226 9.72342 11.7773 8.67829 11.9212C7.38242 12.0995 6.02073 11.9295 4.63098 11.4155C4.56011 11.3893 4.48395 11.3806 4.409 11.3902C4.33404 11.3998 4.26251 11.4273 4.2005 11.4705C4.13849 11.5137 4.08784 11.5712 4.05286 11.6382C4.01788 11.7051 3.99961 11.7796 3.99961 11.8552V19.3062C4.00347 20.8049 4.3971 22.2768 5.14182 23.5774C5.88655 24.8779 6.95677 25.9624 8.24736 26.7243L9.39242 27.3975C10.1635 27.8504 11.0415 28.0892 11.9358 28.0892C12.83 28.0892 13.7081 27.8504 14.4792 27.3975L15.6244 26.7243C16.9149 25.9624 17.9851 24.8779 18.7298 23.5774C19.4746 22.2768 19.8682 20.8049 19.872 19.3062V11.8552C19.8721 11.7824 19.8551 11.7107 19.8226 11.6457C19.7901 11.5806 19.7429 11.524 19.6848 11.4803ZM18.9345 19.3062C18.931 20.6416 18.5802 21.9532 17.9166 23.112C17.2529 24.2709 16.2993 25.2372 15.1492 25.916L14.0041 26.5893C13.3771 26.9576 12.663 27.1518 11.9358 27.1518C11.2086 27.1518 10.4946 26.9576 9.86754 26.5893L8.72248 25.916C7.57245 25.2372 6.61876 24.2709 5.9551 23.112C5.29144 21.9532 4.94062 20.6416 4.93711 19.3062V12.5072C6.25629 12.9068 7.55504 13.0222 8.80617 12.8499C9.96029 12.691 10.9674 12.2999 12.0337 11.8859C12.6409 11.6544 13.2338 11.3872 13.8095 11.0856C14.148 10.911 14.3523 10.8057 14.6743 10.73C15.8669 10.4493 17.2992 10.9075 18.9345 12.0918V19.3062ZM13.5657 22.7051C13.4698 22.626 13.3464 22.5882 13.2227 22.6C13.099 22.6118 12.985 22.6723 12.9058 22.7681C12.6819 23.0446 12.3668 23.2322 12.017 23.2972C11.2152 23.4326 10.6166 22.7641 10.6107 22.7573C10.5287 22.6638 10.4129 22.6068 10.2888 22.5988C10.1648 22.5907 10.0426 22.6322 9.94914 22.7142C9.85571 22.7963 9.79868 22.912 9.79061 23.0361C9.78254 23.1602 9.82409 23.2823 9.90611 23.3758C9.99236 23.4742 10.7112 24.2538 11.7919 24.2538C11.9196 24.2537 12.047 24.243 12.1729 24.2217C12.7448 24.119 13.2612 23.8152 13.6287 23.365C13.6679 23.3176 13.6973 23.2628 13.7154 23.204C13.7334 23.1451 13.7397 23.0833 13.7339 23.022C13.728 22.9607 13.7101 22.9012 13.6813 22.8468C13.6524 22.7924 13.6131 22.7443 13.5657 22.7051ZM13.103 16.0863C12.9967 16.0219 12.8691 16.0024 12.7483 16.032C12.6276 16.0616 12.5236 16.138 12.4591 16.2443C12.3947 16.3506 12.3752 16.4782 12.4048 16.5989C12.4344 16.7197 12.5108 16.8237 12.6171 16.8882C13.1401 17.2041 13.7387 17.3729 14.3497 17.3768C14.4375 17.3768 14.5274 17.3732 14.6194 17.3655C15.1329 17.3208 15.6288 17.1568 16.0678 16.8866C16.1209 16.8547 16.1671 16.8125 16.2038 16.7626C16.2405 16.7128 16.267 16.6561 16.2817 16.5959C16.2963 16.5357 16.2989 16.4732 16.2893 16.412C16.2797 16.3508 16.258 16.2922 16.2256 16.2394C16.1931 16.1866 16.1506 16.1408 16.1003 16.1046C16.0501 16.0684 15.9931 16.0425 15.9328 16.0284C15.8725 16.0143 15.81 16.0123 15.7489 16.0225C15.6878 16.0328 15.6293 16.055 15.5769 16.088C15.2628 16.2814 14.908 16.399 14.5406 16.4312C14.0372 16.469 13.5345 16.3485 13.103 16.0864V16.0863Z"/>
</mask>
<path d="M31.935 24.6407C31.8623 24.4209 31.7262 24.2274 31.544 24.0846C31.3618 23.9417 31.1415 23.8558 30.9107 23.8377C30.4112 23.7945 29.9169 23.7041 29.4344 23.5676C29.419 23.5635 27.8767 23.1386 26.6451 22.1298C24.685 20.5245 23.5811 17.8638 23.5366 14.6382C23.516 13.1423 23.4365 11.1957 23.0124 9.33409C23.5257 9.644 24.114 9.80741 24.7135 9.80659C24.7946 9.80659 24.8761 9.80363 24.958 9.79772C25.0579 9.7905 25.1529 9.75144 25.2291 9.68627C25.3052 9.62109 25.3584 9.53324 25.381 9.43559C25.5508 8.71102 25.4696 7.95027 25.1507 7.27784C25.8798 7.13664 26.5405 6.75537 27.0276 6.19484C27.0932 6.11906 27.1327 6.02427 27.1405 5.92436C27.1482 5.82446 27.1238 5.7247 27.0707 5.63971C26.6758 5.01082 26.0817 4.53228 25.3831 4.28046C25.8019 3.66521 25.9995 2.92601 25.9435 2.18384C25.9363 2.0839 25.8972 1.98891 25.832 1.9128C25.7669 1.83668 25.679 1.78345 25.5814 1.7609C24.8568 1.59088 24.0959 1.67209 23.4234 1.99121C23.2823 1.2622 22.9011 0.601445 22.3407 0.114339C22.2649 0.0487494 22.1701 0.00916978 22.0702 0.00140829C21.9703 -0.0063532 21.8705 0.0181121 21.7855 0.0712141C21.1567 0.466061 20.6781 1.06015 20.4263 1.75871C19.8111 1.33986 19.0718 1.14231 18.3297 1.1984C18.2297 1.20561 18.1347 1.24466 18.0586 1.30982C17.9825 1.37498 17.9292 1.46283 17.9067 1.56046C17.8559 1.78177 17.8276 2.00765 17.8223 2.23465C16.1334 1.31116 14.2108 0.90316 12.2925 1.06115C8.51561 1.41053 6.00498 2.4349 3.89748 4.48646C1.53942 6.78203 0.901107 9.53771 0.558107 11.0182C-0.126768 13.975 -0.181206 17.2085 0.404919 20.1229C1.06504 23.4054 2.50492 26.1888 4.56879 28.1723C6.86067 30.3747 10.0698 31.6802 13.8493 31.9475C14.3383 31.9821 14.8358 31.9993 15.3419 31.9992C18.0956 31.9992 21.0582 31.4908 23.8348 30.5304C25.7884 29.8547 28.7323 28.1863 29.6201 27.5394C30.6286 26.8045 31.5587 25.9543 31.5994 25.917L31.6141 25.9035C31.786 25.748 31.9081 25.5452 31.9652 25.3205C32.0223 25.0959 32.0118 24.8594 31.9351 24.6407H31.935ZM26.0582 5.8404C25.7434 6.10691 25.3647 6.28678 24.9592 6.36225C24.5538 6.43772 24.1357 6.40619 23.7461 6.27078C23.8882 5.88306 23.9207 5.46371 23.8402 5.05871C24.0406 5.0221 24.245 5.01164 24.4482 5.02759C24.7569 5.0501 25.0581 5.13351 25.3344 5.27302C25.6108 5.41252 25.8567 5.60536 26.0582 5.8404ZM23.4564 3.0559C23.9054 2.73146 24.4548 2.57661 25.0071 2.61884C24.9635 3.17102 24.7258 3.68994 24.3363 4.08371C24.0399 4.07701 23.744 4.11076 23.4567 4.18403C23.4214 4.13514 23.3842 4.08766 23.3451 4.04171C23.3057 3.99602 23.2645 3.9519 23.2217 3.90946C23.3384 3.63694 23.4173 3.34977 23.4564 3.0559ZM23.1002 7.19928C23.1458 7.15991 23.1899 7.11876 23.2323 7.0759C23.5048 7.19256 23.792 7.27151 24.0859 7.31059C24.4101 7.75969 24.5649 8.309 24.5229 8.86128C23.9708 8.81745 23.452 8.5799 23.0581 8.19059C23.0648 7.89425 23.0311 7.59838 22.9579 7.31115C23.0068 7.27576 23.0542 7.23844 23.1002 7.19928ZM21.1734 2.69365C21.1959 2.38495 21.2794 2.08375 21.4189 1.80745C21.5584 1.53114 21.7512 1.28519 21.9862 1.08378C22.2528 1.39847 22.4326 1.77722 22.5081 2.18266C22.5836 2.58809 22.552 3.0062 22.4165 3.39571C22.0288 3.25379 21.6095 3.22118 21.2045 3.30146C21.1678 3.10108 21.1574 2.89679 21.1734 2.69371V2.69365ZM20.3449 5.4284C20.346 5.40765 20.3476 5.38699 20.3497 5.3664C20.3537 5.32556 20.3597 5.28494 20.3675 5.24465C20.3717 5.22353 20.3767 5.20278 20.3819 5.18196C20.3884 5.15542 20.3959 5.12911 20.4042 5.10303C20.4151 5.06805 20.4275 5.03356 20.4414 4.99965C20.4485 4.98259 20.4562 4.9659 20.464 4.94915C20.4761 4.92303 20.4891 4.89726 20.5031 4.87184C20.5205 4.83991 20.5392 4.80874 20.5592 4.7784C20.6891 4.58217 20.8698 4.42484 21.082 4.32315C21.0841 4.32221 21.0862 4.32153 21.0883 4.32059C21.1069 4.31178 21.126 4.30396 21.1449 4.29609C21.1535 4.29253 21.1619 4.28859 21.1705 4.28528C21.191 4.27728 21.2118 4.27009 21.2326 4.26321C21.242 4.26009 21.2514 4.25707 21.2608 4.25415C21.2825 4.24746 21.3043 4.24109 21.3262 4.23559C21.3307 4.23446 21.3354 4.23359 21.3399 4.23253C21.3843 4.22196 21.4293 4.21375 21.4745 4.2079C21.4827 4.2069 21.4909 4.20559 21.4991 4.20465C21.5325 4.20106 21.5661 4.19877 21.5997 4.19778C21.6201 4.19715 21.6404 4.1964 21.6608 4.19665L21.6621 4.19671C21.7007 4.19734 21.7392 4.20015 21.7777 4.20415C21.8179 4.2082 21.8579 4.2141 21.8976 4.22184C21.9182 4.2259 21.9386 4.23078 21.959 4.23578C21.9858 4.24244 22.0125 4.24999 22.0389 4.2584C22.0738 4.26934 22.1082 4.28173 22.142 4.29553C22.1596 4.30278 22.1769 4.31078 22.194 4.31884C22.2195 4.33063 22.2445 4.3433 22.2692 4.35684C22.3013 4.37426 22.3326 4.39305 22.363 4.41315C22.5654 4.54676 22.7261 4.73457 22.8268 4.95515C22.842 4.98834 22.8557 5.02216 22.868 5.05653C22.8774 5.08286 22.886 5.1094 22.8937 5.13615C22.899 5.1544 22.9043 5.17271 22.9087 5.19115C22.9172 5.22666 22.9241 5.2625 22.9295 5.29859C22.9337 5.32609 22.9371 5.35369 22.9395 5.3814C22.9414 5.40228 22.943 5.42315 22.9439 5.44415C22.9454 5.48488 22.9451 5.52565 22.9429 5.56634C22.9417 5.58788 22.94 5.60938 22.9379 5.63084C22.9338 5.6714 22.9278 5.71176 22.92 5.75178C22.916 5.77221 22.9111 5.79246 22.9062 5.81265C22.8994 5.83994 22.8917 5.86703 22.8832 5.8939C22.8723 5.92864 22.8599 5.9629 22.8462 5.99659C22.8392 6.0134 22.8315 6.02984 22.8239 6.04628C22.8117 6.07261 22.7986 6.09855 22.7846 6.12409C22.7673 6.156 22.7486 6.18716 22.7285 6.21747C22.6005 6.41092 22.4231 6.56662 22.2146 6.66842C22.0061 6.77022 21.7742 6.81442 21.5429 6.79644C21.3116 6.77846 21.0894 6.69896 20.8991 6.56617C20.7089 6.43338 20.5577 6.25213 20.461 6.04122C20.4459 6.008 20.4321 5.97416 20.4198 5.93978C20.4103 5.91336 20.4017 5.88671 20.3939 5.85984C20.3885 5.8416 20.3835 5.82324 20.3789 5.80478C20.3704 5.76905 20.3635 5.73297 20.358 5.69665C20.3539 5.66994 20.3506 5.64313 20.3482 5.61621C20.3464 5.59465 20.3446 5.57309 20.3437 5.5514C20.3422 5.51041 20.3426 5.46936 20.3449 5.4284ZM22.1142 8.30234C22.0917 8.61106 22.0083 8.91226 21.8688 9.18858C21.7293 9.4649 21.5365 9.71086 21.3014 9.91228C21.0345 9.59783 20.8545 9.21907 20.7791 8.81357C20.7038 8.40808 20.7357 7.98992 20.8719 7.60059C21.0646 7.67107 21.266 7.71485 21.4706 7.73072C21.5298 7.73538 21.5887 7.73767 21.6474 7.73759C21.7934 7.73749 21.9391 7.72309 22.0823 7.69459C22.1192 7.89494 22.1299 8.09923 22.1142 8.30234H22.1142ZM18.7647 2.13465C19.3169 2.17824 19.8358 2.41593 20.2295 2.80559C20.2228 3.10197 20.2566 3.39788 20.3298 3.68515C20.2809 3.72049 20.2335 3.75775 20.1875 3.79684C20.1418 3.8362 20.0977 3.87736 20.0553 3.92021C19.7828 3.80357 19.4956 3.72461 19.2017 3.68553C18.8772 3.23654 18.7224 2.68707 18.7647 2.13471V2.13465ZM20.0659 7.08653C19.9493 7.35908 19.8703 7.64627 19.8312 7.94015C19.3824 8.26482 18.8328 8.41967 18.2805 8.37715C18.3241 7.82466 18.562 7.30547 18.952 6.91172C18.9769 6.91234 19.0017 6.91315 19.0265 6.91315C19.2978 6.91302 19.568 6.87901 19.8309 6.8119C19.8662 6.86084 19.9034 6.90836 19.9425 6.95434C19.9819 7.00001 20.0231 7.04411 20.066 7.08653H20.0659ZM18.9455 4.60078C19.1488 4.61628 19.3491 4.65813 19.5415 4.72528C19.3995 5.11298 19.367 5.5323 19.4475 5.93728C19.0417 6.01104 18.6238 5.97774 18.2348 5.84066C17.8459 5.70358 17.4994 5.46746 17.2295 5.15559C17.4648 4.95446 17.7376 4.80189 18.0321 4.70667C18.3266 4.61145 18.6371 4.57546 18.9455 4.60078ZM30.9808 25.2122L30.9645 25.2272C30.9552 25.2357 30.0328 26.0787 29.068 26.7817C28.3128 27.332 25.4368 28.9842 23.5284 29.6444C20.359 30.7408 16.9451 31.2267 13.9154 31.0123C10.3067 30.7571 7.38054 29.5742 5.21842 27.4963C3.29292 25.6459 1.94629 23.0323 1.32404 19.9381C0.763669 17.1518 0.816044 14.0592 1.47148 11.2297C1.81523 9.74565 2.39067 7.26171 4.55148 5.15821C6.49242 3.26871 8.83336 2.32259 12.379 1.99459C13.2665 1.92628 14.1592 1.98765 15.029 2.17678C16.0528 2.41027 17.03 2.81441 17.9196 3.37228C17.9483 3.38999 17.9788 3.40458 18.0105 3.41578C18.0476 3.51868 18.0898 3.61966 18.1369 3.71834C17.4079 3.8595 16.7472 4.2407 16.26 4.80115C16.1945 4.87693 16.1549 4.97172 16.1472 5.07163C16.1394 5.17154 16.1639 5.2713 16.217 5.35628C16.6118 5.98518 17.206 6.46371 17.9045 6.71553C17.4856 7.33073 17.288 8.06997 17.3442 8.81215C17.3514 8.9121 17.3904 9.00711 17.4556 9.08323C17.5208 9.15936 17.6086 9.21261 17.7062 9.23515C17.9543 9.29269 18.2082 9.32184 18.4629 9.32203C18.9477 9.32215 19.4266 9.21411 19.8644 9.00578C20.0057 9.73442 20.3867 10.3948 20.9469 10.8817C21.0227 10.9473 21.1175 10.9869 21.2174 10.9947C21.3173 11.0024 21.4171 10.978 21.5021 10.9248C21.7814 10.75 22.0329 10.5343 22.2482 10.285C22.5228 11.8318 22.582 13.4023 22.5992 14.6511C22.6475 18.158 23.8735 21.0715 26.0511 22.8552C27.4364 23.9897 29.1187 24.4533 29.1845 24.4712C29.7224 24.623 30.2733 24.7237 30.8301 24.7718C30.879 24.7764 30.9256 24.795 30.9642 24.8255C31.0028 24.8559 31.0318 24.8968 31.0477 24.9433C31.0636 24.9898 31.0658 25.0399 31.0539 25.0876C31.042 25.1353 31.0166 25.1786 30.9808 25.2122ZM10.2039 16.2418C10.1717 16.1894 10.1294 16.1438 10.0796 16.1077C10.0297 16.0716 9.97327 16.0456 9.91339 16.0313C9.85351 16.017 9.7914 16.0147 9.73061 16.0244C9.66982 16.0341 9.61155 16.0557 9.55911 16.088C9.24513 16.2815 8.89032 16.399 8.52292 16.4313C8.01947 16.4692 7.51678 16.3486 7.08529 16.0865C7.03265 16.0546 6.97424 16.0333 6.91339 16.024C6.85254 16.0147 6.79045 16.0174 6.73066 16.0321C6.67087 16.0467 6.61455 16.073 6.56493 16.1094C6.5153 16.1459 6.47333 16.1917 6.44142 16.2443C6.40951 16.297 6.38828 16.3554 6.37894 16.4162C6.36961 16.4771 6.37235 16.5392 6.38701 16.599C6.40167 16.6588 6.42796 16.7151 6.46438 16.7647C6.50081 16.8143 6.54665 16.8563 6.59929 16.8882C7.12227 17.2042 7.7209 17.373 8.33192 17.3768C8.41967 17.3768 8.50967 17.3733 8.60161 17.3655C9.11513 17.3208 9.61112 17.1568 10.0501 16.8867C10.156 16.8215 10.2317 16.717 10.2606 16.5961C10.2894 16.4752 10.269 16.3477 10.2039 16.2418ZM19.6848 11.4803C17.7384 10.0188 15.9803 9.4594 14.4595 9.81734C14.0252 9.91959 13.7545 10.0592 13.3799 10.2523C12.8335 10.5385 12.2707 10.7922 11.6944 11.012C10.6368 11.4226 9.72342 11.7773 8.67829 11.9212C7.38242 12.0995 6.02073 11.9295 4.63098 11.4155C4.56011 11.3893 4.48395 11.3806 4.409 11.3902C4.33404 11.3998 4.26251 11.4273 4.2005 11.4705C4.13849 11.5137 4.08784 11.5712 4.05286 11.6382C4.01788 11.7051 3.99961 11.7796 3.99961 11.8552V19.3062C4.00347 20.8049 4.3971 22.2768 5.14182 23.5774C5.88655 24.8779 6.95677 25.9624 8.24736 26.7243L9.39242 27.3975C10.1635 27.8504 11.0415 28.0892 11.9358 28.0892C12.83 28.0892 13.7081 27.8504 14.4792 27.3975L15.6244 26.7243C16.9149 25.9624 17.9851 24.8779 18.7298 23.5774C19.4746 22.2768 19.8682 20.8049 19.872 19.3062V11.8552C19.8721 11.7824 19.8551 11.7107 19.8226 11.6457C19.7901 11.5806 19.7429 11.524 19.6848 11.4803ZM18.9345 19.3062C18.931 20.6416 18.5802 21.9532 17.9166 23.112C17.2529 24.2709 16.2993 25.2372 15.1492 25.916L14.0041 26.5893C13.3771 26.9576 12.663 27.1518 11.9358 27.1518C11.2086 27.1518 10.4946 26.9576 9.86754 26.5893L8.72248 25.916C7.57245 25.2372 6.61876 24.2709 5.9551 23.112C5.29144 21.9532 4.94062 20.6416 4.93711 19.3062V12.5072C6.25629 12.9068 7.55504 13.0222 8.80617 12.8499C9.96029 12.691 10.9674 12.2999 12.0337 11.8859C12.6409 11.6544 13.2338 11.3872 13.8095 11.0856C14.148 10.911 14.3523 10.8057 14.6743 10.73C15.8669 10.4493 17.2992 10.9075 18.9345 12.0918V19.3062ZM13.5657 22.7051C13.4698 22.626 13.3464 22.5882 13.2227 22.6C13.099 22.6118 12.985 22.6723 12.9058 22.7681C12.6819 23.0446 12.3668 23.2322 12.017 23.2972C11.2152 23.4326 10.6166 22.7641 10.6107 22.7573C10.5287 22.6638 10.4129 22.6068 10.2888 22.5988C10.1648 22.5907 10.0426 22.6322 9.94914 22.7142C9.85571 22.7963 9.79868 22.912 9.79061 23.0361C9.78254 23.1602 9.82409 23.2823 9.90611 23.3758C9.99236 23.4742 10.7112 24.2538 11.7919 24.2538C11.9196 24.2537 12.047 24.243 12.1729 24.2217C12.7448 24.119 13.2612 23.8152 13.6287 23.365C13.6679 23.3176 13.6973 23.2628 13.7154 23.204C13.7334 23.1451 13.7397 23.0833 13.7339 23.022C13.728 22.9607 13.7101 22.9012 13.6813 22.8468C13.6524 22.7924 13.6131 22.7443 13.5657 22.7051ZM13.103 16.0863C12.9967 16.0219 12.8691 16.0024 12.7483 16.032C12.6276 16.0616 12.5236 16.138 12.4591 16.2443C12.3947 16.3506 12.3752 16.4782 12.4048 16.5989C12.4344 16.7197 12.5108 16.8237 12.6171 16.8882C13.1401 17.2041 13.7387 17.3729 14.3497 17.3768C14.4375 17.3768 14.5274 17.3732 14.6194 17.3655C15.1329 17.3208 15.6288 17.1568 16.0678 16.8866C16.1209 16.8547 16.1671 16.8125 16.2038 16.7626C16.2405 16.7128 16.267 16.6561 16.2817 16.5959C16.2963 16.5357 16.2989 16.4732 16.2893 16.412C16.2797 16.3508 16.258 16.2922 16.2256 16.2394C16.1931 16.1866 16.1506 16.1408 16.1003 16.1046C16.0501 16.0684 15.9931 16.0425 15.9328 16.0284C15.8725 16.0143 15.81 16.0123 15.7489 16.0225C15.6878 16.0328 15.6293 16.055 15.5769 16.088C15.2628 16.2814 14.908 16.399 14.5406 16.4312C14.0372 16.469 13.5345 16.3485 13.103 16.0864V16.0863Z" fill="#CAA731"/>
<path d="M31.935 24.6407C31.8623 24.4209 31.7262 24.2274 31.544 24.0846C31.3618 23.9417 31.1415 23.8558 30.9107 23.8377C30.4112 23.7945 29.9169 23.7041 29.4344 23.5676C29.419 23.5635 27.8767 23.1386 26.6451 22.1298C24.685 20.5245 23.5811 17.8638 23.5366 14.6382C23.516 13.1423 23.4365 11.1957 23.0124 9.33409C23.5257 9.644 24.114 9.80741 24.7135 9.80659C24.7946 9.80659 24.8761 9.80363 24.958 9.79772C25.0579 9.7905 25.1529 9.75144 25.2291 9.68627C25.3052 9.62109 25.3584 9.53324 25.381 9.43559C25.5508 8.71102 25.4696 7.95027 25.1507 7.27784C25.8798 7.13664 26.5405 6.75537 27.0276 6.19484C27.0932 6.11906 27.1327 6.02427 27.1405 5.92436C27.1482 5.82446 27.1238 5.7247 27.0707 5.63971C26.6758 5.01082 26.0817 4.53228 25.3831 4.28046C25.8019 3.66521 25.9995 2.92601 25.9435 2.18384C25.9363 2.0839 25.8972 1.98891 25.832 1.9128C25.7669 1.83668 25.679 1.78345 25.5814 1.7609C24.8568 1.59088 24.0959 1.67209 23.4234 1.99121C23.2823 1.2622 22.9011 0.601445 22.3407 0.114339C22.2649 0.0487494 22.1701 0.00916978 22.0702 0.00140829C21.9703 -0.0063532 21.8705 0.0181121 21.7855 0.0712141C21.1567 0.466061 20.6781 1.06015 20.4263 1.75871C19.8111 1.33986 19.0718 1.14231 18.3297 1.1984C18.2297 1.20561 18.1347 1.24466 18.0586 1.30982C17.9825 1.37498 17.9292 1.46283 17.9067 1.56046C17.8559 1.78177 17.8276 2.00765 17.8223 2.23465C16.1334 1.31116 14.2108 0.90316 12.2925 1.06115C8.51561 1.41053 6.00498 2.4349 3.89748 4.48646C1.53942 6.78203 0.901107 9.53771 0.558107 11.0182C-0.126768 13.975 -0.181206 17.2085 0.404919 20.1229C1.06504 23.4054 2.50492 26.1888 4.56879 28.1723C6.86067 30.3747 10.0698 31.6802 13.8493 31.9475C14.3383 31.9821 14.8358 31.9993 15.3419 31.9992C18.0956 31.9992 21.0582 31.4908 23.8348 30.5304C25.7884 29.8547 28.7323 28.1863 29.6201 27.5394C30.6286 26.8045 31.5587 25.9543 31.5994 25.917L31.6141 25.9035C31.786 25.748 31.9081 25.5452 31.9652 25.3205C32.0223 25.0959 32.0118 24.8594 31.9351 24.6407H31.935ZM26.0582 5.8404C25.7434 6.10691 25.3647 6.28678 24.9592 6.36225C24.5538 6.43772 24.1357 6.40619 23.7461 6.27078C23.8882 5.88306 23.9207 5.46371 23.8402 5.05871C24.0406 5.0221 24.245 5.01164 24.4482 5.02759C24.7569 5.0501 25.0581 5.13351 25.3344 5.27302C25.6108 5.41252 25.8567 5.60536 26.0582 5.8404ZM23.4564 3.0559C23.9054 2.73146 24.4548 2.57661 25.0071 2.61884C24.9635 3.17102 24.7258 3.68994 24.3363 4.08371C24.0399 4.07701 23.744 4.11076 23.4567 4.18403C23.4214 4.13514 23.3842 4.08766 23.3451 4.04171C23.3057 3.99602 23.2645 3.9519 23.2217 3.90946C23.3384 3.63694 23.4173 3.34977 23.4564 3.0559ZM23.1002 7.19928C23.1458 7.15991 23.1899 7.11876 23.2323 7.0759C23.5048 7.19256 23.792 7.27151 24.0859 7.31059C24.4101 7.75969 24.5649 8.309 24.5229 8.86128C23.9708 8.81745 23.452 8.5799 23.0581 8.19059C23.0648 7.89425 23.0311 7.59838 22.9579 7.31115C23.0068 7.27576 23.0542 7.23844 23.1002 7.19928ZM21.1734 2.69365C21.1959 2.38495 21.2794 2.08375 21.4189 1.80745C21.5584 1.53114 21.7512 1.28519 21.9862 1.08378C22.2528 1.39847 22.4326 1.77722 22.5081 2.18266C22.5836 2.58809 22.552 3.0062 22.4165 3.39571C22.0288 3.25379 21.6095 3.22118 21.2045 3.30146C21.1678 3.10108 21.1574 2.89679 21.1734 2.69371V2.69365ZM20.3449 5.4284C20.346 5.40765 20.3476 5.38699 20.3497 5.3664C20.3537 5.32556 20.3597 5.28494 20.3675 5.24465C20.3717 5.22353 20.3767 5.20278 20.3819 5.18196C20.3884 5.15542 20.3959 5.12911 20.4042 5.10303C20.4151 5.06805 20.4275 5.03356 20.4414 4.99965C20.4485 4.98259 20.4562 4.9659 20.464 4.94915C20.4761 4.92303 20.4891 4.89726 20.5031 4.87184C20.5205 4.83991 20.5392 4.80874 20.5592 4.7784C20.6891 4.58217 20.8698 4.42484 21.082 4.32315C21.0841 4.32221 21.0862 4.32153 21.0883 4.32059C21.1069 4.31178 21.126 4.30396 21.1449 4.29609C21.1535 4.29253 21.1619 4.28859 21.1705 4.28528C21.191 4.27728 21.2118 4.27009 21.2326 4.26321C21.242 4.26009 21.2514 4.25707 21.2608 4.25415C21.2825 4.24746 21.3043 4.24109 21.3262 4.23559C21.3307 4.23446 21.3354 4.23359 21.3399 4.23253C21.3843 4.22196 21.4293 4.21375 21.4745 4.2079C21.4827 4.2069 21.4909 4.20559 21.4991 4.20465C21.5325 4.20106 21.5661 4.19877 21.5997 4.19778C21.6201 4.19715 21.6404 4.1964 21.6608 4.19665L21.6621 4.19671C21.7007 4.19734 21.7392 4.20015 21.7777 4.20415C21.8179 4.2082 21.8579 4.2141 21.8976 4.22184C21.9182 4.2259 21.9386 4.23078 21.959 4.23578C21.9858 4.24244 22.0125 4.24999 22.0389 4.2584C22.0738 4.26934 22.1082 4.28173 22.142 4.29553C22.1596 4.30278 22.1769 4.31078 22.194 4.31884C22.2195 4.33063 22.2445 4.3433 22.2692 4.35684C22.3013 4.37426 22.3326 4.39305 22.363 4.41315C22.5654 4.54676 22.7261 4.73457 22.8268 4.95515C22.842 4.98834 22.8557 5.02216 22.868 5.05653C22.8774 5.08286 22.886 5.1094 22.8937 5.13615C22.899 5.1544 22.9043 5.17271 22.9087 5.19115C22.9172 5.22666 22.9241 5.2625 22.9295 5.29859C22.9337 5.32609 22.9371 5.35369 22.9395 5.3814C22.9414 5.40228 22.943 5.42315 22.9439 5.44415C22.9454 5.48488 22.9451 5.52565 22.9429 5.56634C22.9417 5.58788 22.94 5.60938 22.9379 5.63084C22.9338 5.6714 22.9278 5.71176 22.92 5.75178C22.916 5.77221 22.9111 5.79246 22.9062 5.81265C22.8994 5.83994 22.8917 5.86703 22.8832 5.8939C22.8723 5.92864 22.8599 5.9629 22.8462 5.99659C22.8392 6.0134 22.8315 6.02984 22.8239 6.04628C22.8117 6.07261 22.7986 6.09855 22.7846 6.12409C22.7673 6.156 22.7486 6.18716 22.7285 6.21747C22.6005 6.41092 22.4231 6.56662 22.2146 6.66842C22.0061 6.77022 21.7742 6.81442 21.5429 6.79644C21.3116 6.77846 21.0894 6.69896 20.8991 6.56617C20.7089 6.43338 20.5577 6.25213 20.461 6.04122C20.4459 6.008 20.4321 5.97416 20.4198 5.93978C20.4103 5.91336 20.4017 5.88671 20.3939 5.85984C20.3885 5.8416 20.3835 5.82324 20.3789 5.80478C20.3704 5.76905 20.3635 5.73297 20.358 5.69665C20.3539 5.66994 20.3506 5.64313 20.3482 5.61621C20.3464 5.59465 20.3446 5.57309 20.3437 5.5514C20.3422 5.51041 20.3426 5.46936 20.3449 5.4284ZM22.1142 8.30234C22.0917 8.61106 22.0083 8.91226 21.8688 9.18858C21.7293 9.4649 21.5365 9.71086 21.3014 9.91228C21.0345 9.59783 20.8545 9.21907 20.7791 8.81357C20.7038 8.40808 20.7357 7.98992 20.8719 7.60059C21.0646 7.67107 21.266 7.71485 21.4706 7.73072C21.5298 7.73538 21.5887 7.73767 21.6474 7.73759C21.7934 7.73749 21.9391 7.72309 22.0823 7.69459C22.1192 7.89494 22.1299 8.09923 22.1142 8.30234H22.1142ZM18.7647 2.13465C19.3169 2.17824 19.8358 2.41593 20.2295 2.80559C20.2228 3.10197 20.2566 3.39788 20.3298 3.68515C20.2809 3.72049 20.2335 3.75775 20.1875 3.79684C20.1418 3.8362 20.0977 3.87736 20.0553 3.92021C19.7828 3.80357 19.4956 3.72461 19.2017 3.68553C18.8772 3.23654 18.7224 2.68707 18.7647 2.13471V2.13465ZM20.0659 7.08653C19.9493 7.35908 19.8703 7.64627 19.8312 7.94015C19.3824 8.26482 18.8328 8.41967 18.2805 8.37715C18.3241 7.82466 18.562 7.30547 18.952 6.91172C18.9769 6.91234 19.0017 6.91315 19.0265 6.91315C19.2978 6.91302 19.568 6.87901 19.8309 6.8119C19.8662 6.86084 19.9034 6.90836 19.9425 6.95434C19.9819 7.00001 20.0231 7.04411 20.066 7.08653H20.0659ZM18.9455 4.60078C19.1488 4.61628 19.3491 4.65813 19.5415 4.72528C19.3995 5.11298 19.367 5.5323 19.4475 5.93728C19.0417 6.01104 18.6238 5.97774 18.2348 5.84066C17.8459 5.70358 17.4994 5.46746 17.2295 5.15559C17.4648 4.95446 17.7376 4.80189 18.0321 4.70667C18.3266 4.61145 18.6371 4.57546 18.9455 4.60078ZM30.9808 25.2122L30.9645 25.2272C30.9552 25.2357 30.0328 26.0787 29.068 26.7817C28.3128 27.332 25.4368 28.9842 23.5284 29.6444C20.359 30.7408 16.9451 31.2267 13.9154 31.0123C10.3067 30.7571 7.38054 29.5742 5.21842 27.4963C3.29292 25.6459 1.94629 23.0323 1.32404 19.9381C0.763669 17.1518 0.816044 14.0592 1.47148 11.2297C1.81523 9.74565 2.39067 7.26171 4.55148 5.15821C6.49242 3.26871 8.83336 2.32259 12.379 1.99459C13.2665 1.92628 14.1592 1.98765 15.029 2.17678C16.0528 2.41027 17.03 2.81441 17.9196 3.37228C17.9483 3.38999 17.9788 3.40458 18.0105 3.41578C18.0476 3.51868 18.0898 3.61966 18.1369 3.71834C17.4079 3.8595 16.7472 4.2407 16.26 4.80115C16.1945 4.87693 16.1549 4.97172 16.1472 5.07163C16.1394 5.17154 16.1639 5.2713 16.217 5.35628C16.6118 5.98518 17.206 6.46371 17.9045 6.71553C17.4856 7.33073 17.288 8.06997 17.3442 8.81215C17.3514 8.9121 17.3904 9.00711 17.4556 9.08323C17.5208 9.15936 17.6086 9.21261 17.7062 9.23515C17.9543 9.29269 18.2082 9.32184 18.4629 9.32203C18.9477 9.32215 19.4266 9.21411 19.8644 9.00578C20.0057 9.73442 20.3867 10.3948 20.9469 10.8817C21.0227 10.9473 21.1175 10.9869 21.2174 10.9947C21.3173 11.0024 21.4171 10.978 21.5021 10.9248C21.7814 10.75 22.0329 10.5343 22.2482 10.285C22.5228 11.8318 22.582 13.4023 22.5992 14.6511C22.6475 18.158 23.8735 21.0715 26.0511 22.8552C27.4364 23.9897 29.1187 24.4533 29.1845 24.4712C29.7224 24.623 30.2733 24.7237 30.8301 24.7718C30.879 24.7764 30.9256 24.795 30.9642 24.8255C31.0028 24.8559 31.0318 24.8968 31.0477 24.9433C31.0636 24.9898 31.0658 25.0399 31.0539 25.0876C31.042 25.1353 31.0166 25.1786 30.9808 25.2122ZM10.2039 16.2418C10.1717 16.1894 10.1294 16.1438 10.0796 16.1077C10.0297 16.0716 9.97327 16.0456 9.91339 16.0313C9.85351 16.017 9.7914 16.0147 9.73061 16.0244C9.66982 16.0341 9.61155 16.0557 9.55911 16.088C9.24513 16.2815 8.89032 16.399 8.52292 16.4313C8.01947 16.4692 7.51678 16.3486 7.08529 16.0865C7.03265 16.0546 6.97424 16.0333 6.91339 16.024C6.85254 16.0147 6.79045 16.0174 6.73066 16.0321C6.67087 16.0467 6.61455 16.073 6.56493 16.1094C6.5153 16.1459 6.47333 16.1917 6.44142 16.2443C6.40951 16.297 6.38828 16.3554 6.37894 16.4162C6.36961 16.4771 6.37235 16.5392 6.38701 16.599C6.40167 16.6588 6.42796 16.7151 6.46438 16.7647C6.50081 16.8143 6.54665 16.8563 6.59929 16.8882C7.12227 17.2042 7.7209 17.373 8.33192 17.3768C8.41967 17.3768 8.50967 17.3733 8.60161 17.3655C9.11513 17.3208 9.61112 17.1568 10.0501 16.8867C10.156 16.8215 10.2317 16.717 10.2606 16.5961C10.2894 16.4752 10.269 16.3477 10.2039 16.2418ZM19.6848 11.4803C17.7384 10.0188 15.9803 9.4594 14.4595 9.81734C14.0252 9.91959 13.7545 10.0592 13.3799 10.2523C12.8335 10.5385 12.2707 10.7922 11.6944 11.012C10.6368 11.4226 9.72342 11.7773 8.67829 11.9212C7.38242 12.0995 6.02073 11.9295 4.63098 11.4155C4.56011 11.3893 4.48395 11.3806 4.409 11.3902C4.33404 11.3998 4.26251 11.4273 4.2005 11.4705C4.13849 11.5137 4.08784 11.5712 4.05286 11.6382C4.01788 11.7051 3.99961 11.7796 3.99961 11.8552V19.3062C4.00347 20.8049 4.3971 22.2768 5.14182 23.5774C5.88655 24.8779 6.95677 25.9624 8.24736 26.7243L9.39242 27.3975C10.1635 27.8504 11.0415 28.0892 11.9358 28.0892C12.83 28.0892 13.7081 27.8504 14.4792 27.3975L15.6244 26.7243C16.9149 25.9624 17.9851 24.8779 18.7298 23.5774C19.4746 22.2768 19.8682 20.8049 19.872 19.3062V11.8552C19.8721 11.7824 19.8551 11.7107 19.8226 11.6457C19.7901 11.5806 19.7429 11.524 19.6848 11.4803ZM18.9345 19.3062C18.931 20.6416 18.5802 21.9532 17.9166 23.112C17.2529 24.2709 16.2993 25.2372 15.1492 25.916L14.0041 26.5893C13.3771 26.9576 12.663 27.1518 11.9358 27.1518C11.2086 27.1518 10.4946 26.9576 9.86754 26.5893L8.72248 25.916C7.57245 25.2372 6.61876 24.2709 5.9551 23.112C5.29144 21.9532 4.94062 20.6416 4.93711 19.3062V12.5072C6.25629 12.9068 7.55504 13.0222 8.80617 12.8499C9.96029 12.691 10.9674 12.2999 12.0337 11.8859C12.6409 11.6544 13.2338 11.3872 13.8095 11.0856C14.148 10.911 14.3523 10.8057 14.6743 10.73C15.8669 10.4493 17.2992 10.9075 18.9345 12.0918V19.3062ZM13.5657 22.7051C13.4698 22.626 13.3464 22.5882 13.2227 22.6C13.099 22.6118 12.985 22.6723 12.9058 22.7681C12.6819 23.0446 12.3668 23.2322 12.017 23.2972C11.2152 23.4326 10.6166 22.7641 10.6107 22.7573C10.5287 22.6638 10.4129 22.6068 10.2888 22.5988C10.1648 22.5907 10.0426 22.6322 9.94914 22.7142C9.85571 22.7963 9.79868 22.912 9.79061 23.0361C9.78254 23.1602 9.82409 23.2823 9.90611 23.3758C9.99236 23.4742 10.7112 24.2538 11.7919 24.2538C11.9196 24.2537 12.047 24.243 12.1729 24.2217C12.7448 24.119 13.2612 23.8152 13.6287 23.365C13.6679 23.3176 13.6973 23.2628 13.7154 23.204C13.7334 23.1451 13.7397 23.0833 13.7339 23.022C13.728 22.9607 13.7101 22.9012 13.6813 22.8468C13.6524 22.7924 13.6131 22.7443 13.5657 22.7051ZM13.103 16.0863C12.9967 16.0219 12.8691 16.0024 12.7483 16.032C12.6276 16.0616 12.5236 16.138 12.4591 16.2443C12.3947 16.3506 12.3752 16.4782 12.4048 16.5989C12.4344 16.7197 12.5108 16.8237 12.6171 16.8882C13.1401 17.2041 13.7387 17.3729 14.3497 17.3768C14.4375 17.3768 14.5274 17.3732 14.6194 17.3655C15.1329 17.3208 15.6288 17.1568 16.0678 16.8866C16.1209 16.8547 16.1671 16.8125 16.2038 16.7626C16.2405 16.7128 16.267 16.6561 16.2817 16.5959C16.2963 16.5357 16.2989 16.4732 16.2893 16.412C16.2797 16.3508 16.258 16.2922 16.2256 16.2394C16.1931 16.1866 16.1506 16.1408 16.1003 16.1046C16.0501 16.0684 15.9931 16.0425 15.9328 16.0284C15.8725 16.0143 15.81 16.0123 15.7489 16.0225C15.6878 16.0328 15.6293 16.055 15.5769 16.088C15.2628 16.2814 14.908 16.399 14.5406 16.4312C14.0372 16.469 13.5345 16.3485 13.103 16.0864V16.0863Z" stroke="#CAA731" mask="url(#path-1-outside-1_532_2634)"/>
</g>
<defs>
<clipPath id="clip0_532_2634">
<rect width="32" height="32" fill="white"/>
</clipPath>
</defs>
</svg>
